<svg xmlns="http://www.w3.org/2000/svg" xmlns:xlink="http://www.w3.org/1999/xlink" width="327" height="119" viewBox="0 0 327 119">
    <defs>
        <filter id="a" width="124.5%" height="182%" x="-12.2%" y="-41%" filterUnits="objectBoundingBox">
            <feOffset dy="4" in="SourceAlpha" result="shadowOffsetOuter1"/>
            <feGaussianBlur in="shadowOffsetOuter1" result="shadowBlurOuter1" stdDeviation="7.5"/>
            <feColorMatrix in="shadowBlurOuter1" result="shadowMatrixOuter1" values="0 0 0 0 0.851172434 0 0 0 0 0.886483951 0 0 0 0 0.967793367 0 0 0 1 0"/>
            <feMerge>
                <feMergeNode in="shadowMatrixOuter1"/>
                <feMergeNode in="SourceGraphic"/>
            </feMerge>
        </filter>
        <path id="b" d="M4.4 0a4.18 4.18 0 0 1-2.932 1.21H.014c-.008 0-.014.006-.014.016V9.14c0 .008.006.015.014.015h1.323c2.285 0 4.256 1.774 4.357 4.079.107 2.447-1.827 4.464-4.226 4.464H.014c-.008 0-.014.008-.014.015v7.915c0 .009.006.015.014.015h1.323c2.285 0 4.256 1.773 4.357 4.078.107 2.448-1.827 4.466-4.226 4.466H.014c-.008 0-.014.007-.014.015v7.916c0 .006.006.014.014.014h1.323c2.285 0 4.256 1.773 4.357 4.078.107 2.447-1.827 4.465-4.226 4.465H.014c-.008 0-.014.007-.014.016v7.914c0 .009.006.016.014.016h1.323c2.285 0 4.256 1.771 4.357 4.078.107 2.447-1.827 4.465-4.226 4.465H.014c-.008 0-.014.007-.014.014v7.916c0 .009.006.015.014.015h1.323c2.285 0 4.256 1.773 4.357 4.078.107 2.447-1.827 4.465-4.226 4.465H.014c-.008 0-.014.005-.014.014v5.257c0 .007.006.013.014.013H297.15c.006 0 .012-.006.012-.014v-6.328c0-.007-.006-.013-.012-.013h-1.323c-2.284 0-4.256-1.775-4.357-4.08-.107-2.447 1.825-4.465 4.225-4.465h1.455c.006 0 .012-.007.012-.014v-7.916c0-.007-.006-.014-.012-.014h-1.323c-2.284 0-4.256-1.773-4.357-4.08-.107-2.447 1.825-4.464 4.225-4.464h1.455c.006 0 .012-.007.012-.015v-7.916c0-.008-.006-.014-.012-.014h-1.323c-2.284 0-4.256-1.773-4.357-4.078-.107-2.447 1.825-4.465 4.225-4.465h1.455c.006 0 .012-.007.012-.016V33.13c0-.009-.006-.016-.012-.016h-1.323c-2.284 0-4.256-1.772-4.357-4.077-.107-2.448 1.825-4.465 4.225-4.465h1.455c.006 0 .012-.008.012-.015V16.64c0-.007-.006-.015-.012-.015h-1.323c-2.284 0-4.256-1.773-4.357-4.078-.107-2.447 1.825-4.466 4.225-4.466h1.455c.006 0 .012-.007.012-.014V.154c0-.008-.006-.015-.012-.015h-1.323c-.357 0-.7-.057-1.035-.138H4.4z"/>
    </defs>
    <g fill="none" fill-rule="evenodd" filter="url(#a)" transform="translate(15 11)">
        <mask id="c" fill="#fff">
            <use xlink:href="#b"/>
        </mask>
        <path fill="#FFF" d="M4.4 0a4.18 4.18 0 0 1-2.932 1.21H.014c-.008 0-.014.006-.014.016V9.14c0 .008.006.015.014.015h1.323c2.285 0 4.256 1.774 4.357 4.079.107 2.447-1.827 4.464-4.226 4.464H.014c-.008 0-.014.008-.014.015v7.915c0 .009.006.015.014.015h1.323c2.285 0 4.256 1.773 4.357 4.078.107 2.448-1.827 4.466-4.226 4.466H.014c-.008 0-.014.007-.014.015v7.916c0 .006.006.014.014.014h1.323c2.285 0 4.256 1.773 4.357 4.078.107 2.447-1.827 4.465-4.226 4.465H.014c-.008 0-.014.007-.014.016v7.914c0 .009.006.016.014.016h1.323c2.285 0 4.256 1.771 4.357 4.078.107 2.447-1.827 4.465-4.226 4.465H.014c-.008 0-.014.007-.014.014v7.916c0 .009.006.015.014.015h1.323c2.285 0 4.256 1.773 4.357 4.078.107 2.447-1.827 4.465-4.226 4.465H.014c-.008 0-.014.005-.014.014v5.257c0 .007.006.013.014.013H297.15c.006 0 .012-.006.012-.014v-6.328c0-.007-.006-.013-.012-.013h-1.323c-2.284 0-4.256-1.775-4.357-4.08-.107-2.447 1.825-4.465 4.225-4.465h1.455c.006 0 .012-.007.012-.014v-7.916c0-.007-.006-.014-.012-.014h-1.323c-2.284 0-4.256-1.773-4.357-4.08-.107-2.447 1.825-4.464 4.225-4.464h1.455c.006 0 .012-.007.012-.015v-7.916c0-.008-.006-.014-.012-.014h-1.323c-2.284 0-4.256-1.773-4.357-4.078-.107-2.447 1.825-4.465 4.225-4.465h1.455c.006 0 .012-.007.012-.016V33.13c0-.009-.006-.016-.012-.016h-1.323c-2.284 0-4.256-1.772-4.357-4.077-.107-2.448 1.825-4.465 4.225-4.465h1.455c.006 0 .012-.008.012-.015V16.64c0-.007-.006-.015-.012-.015h-1.323c-2.284 0-4.256-1.773-4.357-4.078-.107-2.447 1.825-4.466 4.225-4.466h1.455c.006 0 .012-.007.012-.014V.154c0-.008-.006-.015-.012-.015h-1.323c-.357 0-.7-.057-1.035-.138H4.4z" mask="url(#c)"/>
    </g>
</svg>
