<?xml version="1.0" encoding="UTF-8"?>
<svg width="11px" height="89px" viewBox="0 0 11 89" version="1.1" xmlns="http://www.w3.org/2000/svg" xmlns:xlink="http://www.w3.org/1999/xlink">
    <!-- Generator: Sketch 52.2 (67145) - http://www.bohemiancoding.com/sketch -->
    <title>Group 3 Copy 2</title>
    <desc>Created with Sketch.</desc>
    <defs>
        <rect id="path-1" x="0" y="0" width="69" height="137"></rect>
        <path d="M4.39970764,0.0005 C3.63936213,0.7435 2.61071761,1.2095 1.46821927,1.2095 L0.0138604651,1.2095 C0.00594019934,1.2095 0,1.2165 0,1.2255 L0,9.1405 C0,9.1485 0.00594019934,9.1555 0.0138604651,9.1555 L1.33654485,9.1555 C3.62154153,9.1555 5.59269767,10.9285 5.69368106,13.2335 C5.80060465,15.6805 3.86706977,17.6985 1.46821927,17.6985 L0.0138604651,17.6985 C0.00594019934,17.6985 0,17.7055 0,17.7135 L0,25.6285 C0,25.6365 0.00594019934,25.6435 0.0138604651,25.6435 L1.33654485,25.6435 C3.62154153,25.6435 5.59269767,27.4165 5.69368106,29.7215 C5.80060465,32.1685 3.86706977,34.1865 1.46821927,34.1865 L0.0138604651,34.1865 C0.00594019934,34.1865 0,34.1935 0,34.2015 L0,42.1175 C0,42.1245 0.00594019934,42.1315 0.0138604651,42.1315 L1.33654485,42.1315 C3.62154153,42.1315 5.59269767,43.9045 5.69368106,46.2095 C5.80060465,48.6575 3.86706977,50.6745 1.46821927,50.6745 L0.0138604651,50.6745 C0.00594019934,50.6745 0,50.6815 0,50.6905 L0,58.6055 C0,58.6135 0.00594019934,58.6205 0.0138604651,58.6205 L1.33654485,58.6205 C3.62154153,58.6205 5.59269767,60.3925 5.69368106,62.6985 C5.80060465,65.1455 3.86706977,67.1635 1.46821927,67.1635 L0.0138604651,67.1635 C0.00594019934,67.1635 0,67.1705 0,67.1785 L0,75.0935 C0,75.1025 0.00594019934,75.1085 0.0138604651,75.1085 L1.33654485,75.1085 C3.62154153,75.1085 5.59269767,76.8815 5.69368106,79.1865 C5.80060465,81.6335 3.86706977,83.6515 1.46821927,83.6515 L0.0138604651,83.6515 C0.00594019934,83.6515 0,83.6575 0,83.6665 L0,88.9225 C0,88.9305 0.00594019934,88.9365 0.0138604651,88.9365 L297.149561,88.9365 C297.156492,88.9365 297.162432,88.9305 297.162432,88.9225 L297.162432,82.5945 C297.162432,82.5865 297.156492,82.5805 297.149561,82.5805 L295.826877,82.5805 C293.54287,82.5805 291.570724,80.8065 291.469741,78.5015 C291.362817,76.0545 293.295362,74.0365 295.695203,74.0365 L297.149561,74.0365 C297.156492,74.0365 297.162432,74.0295 297.162432,74.0225 L297.162432,66.1065 C297.162432,66.0985 297.156492,66.0915 297.149561,66.0915 L295.826877,66.0915 C293.54287,66.0915 291.570724,64.3185 291.469741,62.0125 C291.362817,59.5655 293.295362,57.5485 295.695203,57.5485 L297.149561,57.5485 C297.156492,57.5485 297.162432,57.5415 297.162432,57.5335 L297.162432,49.6175 C297.162432,49.6095 297.156492,49.6025 297.149561,49.6025 L295.826877,49.6025 C293.54287,49.6025 291.570724,47.8295 291.469741,45.5255 C291.362817,43.0775 293.295362,41.0605 295.695203,41.0605 L297.149561,41.0605 C297.156492,41.0605 297.162432,41.0535 297.162432,41.0445 L297.162432,33.1295 C297.162432,33.1215 297.156492,33.1145 297.149561,33.1145 L295.826877,33.1145 C293.54287,33.1145 291.570724,31.3415 291.469741,29.0365 C291.362817,26.5885 293.295362,24.5715 295.695203,24.5715 L297.149561,24.5715 C297.156492,24.5715 297.162432,24.5645 297.162432,24.5565 L297.162432,16.6405 C297.162432,16.6335 297.156492,16.6255 297.149561,16.6255 L295.826877,16.6255 C293.54287,16.6255 291.570724,14.8535 291.469741,12.5485 C291.362817,10.1015 293.295362,8.0825 295.695203,8.0825 L297.149561,8.0825 C297.156492,8.0825 297.162432,8.0755 297.162432,8.0685 L297.162432,0.1525 C297.162432,0.1455 297.156492,0.1375 297.149561,0.1375 L295.826877,0.1375 C295.470465,0.1375 295.127914,0.0815 294.792292,0.0005 L4.39970764,0.0005 Z" id="path-3"></path>
    </defs>
    <g id="Welcome" stroke="none" stroke-width="1" fill="none" fill-rule="evenodd">
        <g id="Group-3-Copy-2" transform="translate(0.000000, -20.000000)">
            <mask id="mask-2" fill="white">
                <use xlink:href="#path-1"></use>
            </mask>
            <g id="Mask"></g>
            <g mask="url(#mask-2)">
                <g transform="translate(-287.000000, 20.000000)">
                    <mask id="mask-4" fill="white">
                        <use xlink:href="#path-3"></use>
                    </mask>
                    <g id="Clip-2" stroke="none" fill="none"></g>
                    <path d="M4.39970764,0.0005 C3.63936213,0.7435 2.61071761,1.2095 1.46821927,1.2095 L0.0138604651,1.2095 C0.00594019934,1.2095 0,1.2165 0,1.2255 L0,9.1405 C0,9.1485 0.00594019934,9.1555 0.0138604651,9.1555 L1.33654485,9.1555 C3.62154153,9.1555 5.59269767,10.9285 5.69368106,13.2335 C5.80060465,15.6805 3.86706977,17.6985 1.46821927,17.6985 L0.0138604651,17.6985 C0.00594019934,17.6985 0,17.7055 0,17.7135 L0,25.6285 C0,25.6365 0.00594019934,25.6435 0.0138604651,25.6435 L1.33654485,25.6435 C3.62154153,25.6435 5.59269767,27.4165 5.69368106,29.7215 C5.80060465,32.1685 3.86706977,34.1865 1.46821927,34.1865 L0.0138604651,34.1865 C0.00594019934,34.1865 0,34.1935 0,34.2015 L0,42.1175 C0,42.1245 0.00594019934,42.1315 0.0138604651,42.1315 L1.33654485,42.1315 C3.62154153,42.1315 5.59269767,43.9045 5.69368106,46.2095 C5.80060465,48.6575 3.86706977,50.6745 1.46821927,50.6745 L0.0138604651,50.6745 C0.00594019934,50.6745 0,50.6815 0,50.6905 L0,58.6055 C0,58.6135 0.00594019934,58.6205 0.0138604651,58.6205 L1.33654485,58.6205 C3.62154153,58.6205 5.59269767,60.3925 5.69368106,62.6985 C5.80060465,65.1455 3.86706977,67.1635 1.46821927,67.1635 L0.0138604651,67.1635 C0.00594019934,67.1635 0,67.1705 0,67.1785 L0,75.0935 C0,75.1025 0.00594019934,75.1085 0.0138604651,75.1085 L1.33654485,75.1085 C3.62154153,75.1085 5.59269767,76.8815 5.69368106,79.1865 C5.80060465,81.6335 3.86706977,83.6515 1.46821927,83.6515 L0.0138604651,83.6515 C0.00594019934,83.6515 0,83.6575 0,83.6665 L0,88.9225 C0,88.9305 0.00594019934,88.9365 0.0138604651,88.9365 L297.149561,88.9365 C297.156492,88.9365 297.162432,88.9305 297.162432,88.9225 L297.162432,82.5945 C297.162432,82.5865 297.156492,82.5805 297.149561,82.5805 L295.826877,82.5805 C293.54287,82.5805 291.570724,80.8065 291.469741,78.5015 C291.362817,76.0545 293.295362,74.0365 295.695203,74.0365 L297.149561,74.0365 C297.156492,74.0365 297.162432,74.0295 297.162432,74.0225 L297.162432,66.1065 C297.162432,66.0985 297.156492,66.0915 297.149561,66.0915 L295.826877,66.0915 C293.54287,66.0915 291.570724,64.3185 291.469741,62.0125 C291.362817,59.5655 293.295362,57.5485 295.695203,57.5485 L297.149561,57.5485 C297.156492,57.5485 297.162432,57.5415 297.162432,57.5335 L297.162432,49.6175 C297.162432,49.6095 297.156492,49.6025 297.149561,49.6025 L295.826877,49.6025 C293.54287,49.6025 291.570724,47.8295 291.469741,45.5255 C291.362817,43.0775 293.295362,41.0605 295.695203,41.0605 L297.149561,41.0605 C297.156492,41.0605 297.162432,41.0535 297.162432,41.0445 L297.162432,33.1295 C297.162432,33.1215 297.156492,33.1145 297.149561,33.1145 L295.826877,33.1145 C293.54287,33.1145 291.570724,31.3415 291.469741,29.0365 C291.362817,26.5885 293.295362,24.5715 295.695203,24.5715 L297.149561,24.5715 C297.156492,24.5715 297.162432,24.5645 297.162432,24.5565 L297.162432,16.6405 C297.162432,16.6335 297.156492,16.6255 297.149561,16.6255 L295.826877,16.6255 C293.54287,16.6255 291.570724,14.8535 291.469741,12.5485 C291.362817,10.1015 293.295362,8.0825 295.695203,8.0825 L297.149561,8.0825 C297.156492,8.0825 297.162432,8.0755 297.162432,8.0685 L297.162432,0.1525 C297.162432,0.1455 297.156492,0.1375 297.149561,0.1375 L295.826877,0.1375 C295.470465,0.1375 295.127914,0.0815 294.792292,0.0005 L4.39970764,0.0005 Z" id="Fill-1" stroke="none" fill="#FFFFFF" fill-rule="evenodd" mask="url(#mask-4)"></path>
                </g>
            </g>
        </g>
    </g>
</svg>