<svg xmlns="http://www.w3.org/2000/svg" xmlns:xlink="http://www.w3.org/1999/xlink" width="380" height="358" viewBox="0 0 380 358">
    <defs>
        <path id="a" d="M.244.04h12.962v140.083H.244z"/>
    </defs>
    <g fill="none" fill-rule="evenodd">
        <path fill="#88B9FF" d="M367 106.329L315.067 93 265 106.525 316.954 121z"/>
        <path fill="#3985FF" d="M366 180.202L316 195v-73.2l50-14.8z"/>
        <path fill="#BDD6FF" d="M316 195l-52-14.641V107l52 14.626z"/>
        <path fill="#88B9FF" d="M306 208.33L254.066 195 204 208.526 255.953 223z"/>
        <path fill="#3985FF" d="M306 278.591L256 296v-73.2l50-14.8z"/>
        <path fill="#BDD6FF" d="M256 296l-51.998-18.98L204 208l52 14.627z"/>
        <path fill="#88B9FF" d="M306 124.33L254.066 111 204 124.526 255.953 139z"/>
        <path fill="#3985FF" d="M306 197.202L256 212v-73.2l50-14.8z"/>
        <path fill="#BDD6FF" d="M256 212l-51.998-14.641L204 124l52 14.626z"/>
        <path fill="#88B9FF" d="M245 142.33L193.066 129 143 142.526 194.953 157z"/>
        <path fill="#3985FF" d="M245 214.202L195 229v-73.2l50-14.8z"/>
        <path fill="#BDD6FF" d="M195 229l-51.998-14.641L143 141l52 14.626z"/>
        <path fill="#88B9FF" d="M245 58.33L193.066 45 143 58.526 194.953 73z"/>
        <path fill="#3985FF" d="M245 130.202L195 145V71.8L245 57z"/>
        <path fill="#BDD6FF" d="M195 145l-51.998-14.641L143 57l52 14.626z"/>
        <path fill="#88B9FF" d="M185 160.329L133.066 147 83 160.525 134.953 175z"/>
        <path fill="#3985FF" d="M185 232.202L135 247v-73.2l50-14.8z"/>
        <path fill="#BDD6FF" d="M135 247l-52-17.92V159l52 14.626z"/>
        <path fill="#88B9FF" d="M0 187.28L25.467 194 50 187.188 24.541 181z"/>
        <path fill="#3985FF" d="M50 221.937L26 229v-34.937L50 187z"/>
        <path fill="#BDD6FF" d="M0 222.012L26 229v-35.019L0 187z"/>
        <path fill="#3985FF" d="M57.438 308.222c-1.288-3.395.36-7.214 3.677-8.53 3.318-1.317 7.052.368 8.339 3.763 1.286 3.395-.36 7.214-3.679 8.53-3.318 1.317-7.05-.368-8.337-3.763"/>
        <path fill="#FFF" d="M53.087 314.91c-2.913-2.094-3.616-6.206-1.57-9.186 2.045-2.98 6.065-3.7 8.977-1.606 2.913 2.093 3.615 6.205 1.57 9.186-2.046 2.98-6.064 3.698-8.977 1.605"/>
        <path fill="#3985FF" d="M291.473 56.952l40.976 12.14c3.526 1.044 7.046-1.66 7.052-5.414l.038-28.21c.003-2.53-1.64-4.753-4.019-5.44L294.506 18.18c-3.52-1.017-7.015 1.69-7.015 5.432V51.53c0 2.512 1.624 4.723 3.982 5.422"/>
        <path fill="#3985FF" d="M314.957 49.512l-13.623-3.638c-1.339-.357-2.273-1.594-2.273-3.008V3.356c0-2.035 1.882-3.522 3.806-3.008l13.624 3.637c1.339.358 2.273 1.594 2.273 3.01v39.508c0 2.036-1.882 3.522-3.807 3.009"/>
        <path fill="#88B9FF" d="M309.193 52.623l-13.484-3.6c-1.369-.365-2.324-1.63-2.324-3.078V6.584c0-2.084 1.923-3.605 3.894-3.078l13.483 3.6c1.37.365 2.326 1.63 2.326 3.078v39.36c0 2.084-1.925 3.605-3.895 3.079"/>
        <path fill="#BDD6FF" d="M286.87 61.633l40.977 12.14c3.526 1.044 7.046-1.659 7.051-5.414l.038-28.21c.004-2.53-1.638-4.752-4.018-5.44l-41.015-11.847c-3.52-1.018-7.014 1.69-7.014 5.433V56.21c0 2.513 1.623 4.724 3.981 5.422"/>
        <path fill="#88B9FF" d="M158.512 351.93h9.237c1.03 0 1.863-.853 1.863-1.905V213.752c0-1.052-.834-1.906-1.862-1.906h-9.238c-1.029 0-1.862.854-1.862 1.906v136.273c0 1.052.833 1.905 1.862 1.905M133.828 344.508h9.238c1.028 0 1.862-.853 1.862-1.905v-116.24c0-1.054-.834-1.906-1.862-1.906h-9.238c-1.028 0-1.862.852-1.862 1.905v116.24c0 1.053.834 1.906 1.862 1.906M109.038 334.857h9.237c1.03 0 1.863-.852 1.863-1.905V244.71c0-1.053-.834-1.906-1.863-1.906h-9.237c-1.029 0-1.863.853-1.863 1.906v88.242c0 1.053.834 1.905 1.863 1.905M84.283 323.38h9.238c1.028 0 1.862-.852 1.862-1.905v-63.74c0-1.052-.834-1.905-1.862-1.905h-9.238c-1.028 0-1.862.853-1.862 1.905v63.74c0 1.053.834 1.906 1.862 1.906"/>
        <g transform="translate(149.856 216.996)">
            <mask id="b" fill="#fff">
                <use xlink:href="#a"/>
            </mask>
            <path fill="#FFF" d="M2.106 140.123h9.238c1.029 0 1.862-.853 1.862-1.905V1.944c0-1.051-.833-1.905-1.862-1.905H2.106C1.078.04.244.893.244 1.944v136.274c0 1.052.834 1.905 1.862 1.905" mask="url(#b)"/>
        </g>
        <path fill="#FFF" d="M127.278 349.696h9.238c1.029 0 1.863-.852 1.863-1.905V231.55c0-1.053-.834-1.906-1.863-1.906h-9.238c-1.029 0-1.862.853-1.862 1.905v116.24c0 1.054.833 1.906 1.862 1.906M102.488 339.279h9.238c1.03 0 1.862-.853 1.862-1.906v-88.242c0-1.053-.833-1.905-1.862-1.905h-9.238c-1.028 0-1.862.852-1.862 1.905v88.242c0 1.053.834 1.906 1.862 1.906M77.734 327.168h9.238c1.028 0 1.862-.852 1.862-1.905v-63.74c0-1.052-.834-1.905-1.862-1.905h-9.238c-1.029 0-1.862.853-1.862 1.905v63.74c0 1.053.833 1.905 1.862 1.905"/>
        <path fill="#88B9FF" d="M58.681 314.025h9.238c1.028 0 1.862-.853 1.862-1.905v-33.507c0-1.052-.834-1.906-1.862-1.906h-9.238c-1.028 0-1.862.854-1.862 1.906v33.507c0 1.052.834 1.905 1.862 1.905"/>
        <path fill="#FFF" d="M52.132 316.117h9.238c1.028 0 1.862-.852 1.862-1.905v-33.507c0-1.052-.834-1.905-1.862-1.905h-9.238c-1.028 0-1.862.853-1.862 1.905v33.507c0 1.053.834 1.905 1.862 1.905"/>
        <path fill="#3985FF" d="M335.88 50.44l-12.461-3.542c-1.043-.296-2.072.506-2.072 1.61v5.1c0 .764.5 1.432 1.22 1.63l13.318 3.677-.004-8.475z"/>
        <path fill="#BDD6FF" d="M328.186 52.037c0 1.338-1.06 2.424-2.368 2.424-1.308 0-2.369-1.086-2.369-2.424 0-1.337 1.06-2.422 2.37-2.422 1.307 0 2.367 1.085 2.367 2.422"/>
        <path fill="#3985FF" d="M341.774 244.478l32.589 9.654c2.803.83 5.603-1.32 5.607-4.305l.03-22.435c.002-2.011-1.304-3.78-3.195-4.326l-32.618-9.422c-2.8-.809-5.58 1.344-5.58 4.32v22.202c0 1.999 1.291 3.756 3.167 4.312"/>
        <path fill="#BDD6FF" d="M335.986 248.248l32.587 9.654c2.804.831 5.603-1.318 5.607-4.305l.03-22.434c.003-2.011-1.302-3.78-3.195-4.326l-32.617-9.423c-2.8-.81-5.58 1.343-5.58 4.32v22.202c0 1.998 1.29 3.757 3.168 4.312"/>
        <path fill="#3985FF" d="M366.237 234.652l-27.63-8.255v-4.185l27.63 8.255zM366.214 246.632l-27.676-8.087v1.508l27.676 8.088zM344.386 237.1l-5.85-1.71v-5.987l5.85 1.71zM366.209 253.9l-7.21-2.06v-3.451l7.21 2.06zM100.385 93.989c-1.927 0-3.497 1.612-3.497 3.594 0 1.982 1.57 3.595 3.497 3.595 1.926 0 3.494-1.613 3.494-3.595 0-1.982-1.568-3.594-3.494-3.594m0 13.05c-5.088 0-9.225-4.24-9.225-9.456 0-5.214 4.137-9.456 9.225-9.456 5.086 0 9.221 4.242 9.221 9.456 0 5.215-4.135 9.457-9.221 9.457M75.177 70.82c-1.927 0-3.497 1.612-3.497 3.594 0 1.982 1.57 3.595 3.497 3.595 1.927 0 3.494-1.613 3.494-3.595 0-1.982-1.567-3.595-3.494-3.595m0 13.051c-5.088 0-9.225-4.241-9.225-9.456s4.137-9.455 9.225-9.455c5.085 0 9.222 4.24 9.222 9.455s-4.137 9.456-9.222 9.456M77.225 105.33a2.8 2.8 0 0 1-1.583-.49c-1.319-.896-1.676-2.715-.8-4.063l21.683-33.352c.879-1.349 2.657-1.714 3.972-.817 1.316.896 1.675 2.716.8 4.063l-21.683 33.352a2.851 2.851 0 0 1-2.389 1.308"/>
        <path fill="#FFF" d="M94.5 95.444c-1.928 0-3.497 1.613-3.497 3.595 0 1.981 1.57 3.594 3.496 3.594 1.928 0 3.497-1.613 3.497-3.594 0-1.982-1.57-3.595-3.497-3.595m0 13.051c-5.088 0-9.224-4.241-9.224-9.456s4.136-9.457 9.224-9.457c5.09 0 9.225 4.242 9.225 9.457 0 5.215-4.136 9.456-9.225 9.456M69.292 72.276c-1.927 0-3.493 1.613-3.493 3.595 0 1.982 1.566 3.594 3.493 3.594 1.927 0 3.497-1.612 3.497-3.594 0-1.982-1.57-3.595-3.497-3.595m0 13.051c-5.085 0-9.222-4.242-9.222-9.456 0-5.215 4.137-9.456 9.222-9.456 5.089 0 9.225 4.241 9.225 9.456 0 5.214-4.136 9.456-9.225 9.456M71.34 106.788a2.803 2.803 0 0 1-1.584-.49c-1.317-.897-1.675-2.717-.8-4.064L90.64 68.88c.878-1.35 2.657-1.715 3.972-.816 1.316.895 1.675 2.716.8 4.063L73.729 105.48a2.85 2.85 0 0 1-2.39 1.308"/>
    </g>
</svg>
