<svg xmlns="http://www.w3.org/2000/svg" xmlns:xlink="http://www.w3.org/1999/xlink" width="733" height="305" viewBox="0 0 733 305">
    <defs>
        <path id="a" d="M370.5 251.35c16.878 0 28.547-6.192 35.021-18.588 6.466-12.389 9.705-29.847 9.705-52.382V124.62c0-22.528-3.239-39.986-9.705-52.382-6.474-12.39-18.143-18.588-35.02-18.588-16.879 0-28.554 6.198-35.021 18.588-6.474 12.396-9.706 29.854-9.706 52.382v55.761c0 22.535 3.232 39.993 9.706 52.382 6.467 12.396 18.142 18.587 35.02 18.587m0 53.651c-38.54 0-67.088-13.374-85.652-40.133C266.28 238.115 257 200.657 257 152.5c0-48.157 9.281-85.609 27.848-112.368C303.412 13.38 331.959 0 370.5 0c38.533 0 67.087 13.38 85.651 40.131C474.717 66.891 484 104.341 484 152.5s-9.283 85.616-27.848 112.368C437.588 291.627 409.034 305 370.501 305"/>
        <path id="c" d="M0 0h300v195H0z"/>
    </defs>
    <g fill="none" fill-rule="evenodd">
        <path fill="#024EFD" d="M114.765 10L0 194.27v54.097h129.533V305h60.338v-56.633H227v-49.449h-37.13V10h-75.105zm10.55 65.509h4.218v123.41h-78.9l74.682-123.41zM556.633 198.918h78.902V75.508h-4.22l-74.682 123.41zM635.535 305v-56.633H506v-54.098L620.767 10h75.104v188.918H733v49.449h-37.129V305h-60.336z"/>
        <mask id="b" fill="#fff">
            <use xlink:href="#a"/>
        </mask>
        <use fill="#024EFD" xlink:href="#a"/>
        <g mask="url(#b)">
            <g transform="translate(198 -22)">
                <mask id="d" fill="#fff">
                    <use xlink:href="#c"/>
                </mask>
                <use fill="#FFF" xlink:href="#c"/>
                <g fill="#2B44FF" mask="url(#d)">
                    <path d="M280.573 305.36a4.646 4.646 0 0 0-4.65-4.642 4.646 4.646 0 0 0-4.652 4.642 4.646 4.646 0 0 0 4.651 4.643 4.646 4.646 0 0 0 4.651-4.643M242.201 269.378a4.646 4.646 0 0 0 4.651 4.643 4.646 4.646 0 0 0 4.651-4.643 4.646 4.646 0 0 0-4.65-4.643 4.646 4.646 0 0 0-4.652 4.643M238.713 257.19c0-1.601-1.3-2.901-2.906-2.901a2.904 2.904 0 0 0-2.908 2.902c0 1.602 1.3 2.902 2.908 2.902 1.605 0 2.906-1.3 2.906-2.902M226.154 279.217a2.907 2.907 0 0 0 3.81 1.536 2.895 2.895 0 0 0 1.54-3.802 2.908 2.908 0 0 0-3.81-1.54 2.902 2.902 0 0 0-1.54 3.806M248.625 283.538a2.902 2.902 0 0 0-1.542 3.805 2.91 2.91 0 0 0 3.811 1.536 2.895 2.895 0 0 0 1.54-3.802 2.906 2.906 0 0 0-3.81-1.54M211.415 299.788a2.902 2.902 0 0 0-1.54 3.805 2.91 2.91 0 0 0 3.81 1.536 2.897 2.897 0 0 0 1.54-3.805 2.907 2.907 0 0 0-3.81-1.536M270.688 270.539c2.329 0 2.326-3.482 0-3.482-2.325 0-2.322 3.482 0 3.482M267.201 313.034c1.668 0 1.664-2.58 0-2.58-1.667 0-1.664 2.58 0 2.58M238.13 310.713c1.67 0 1.667-2.58 0-2.58-1.665 0-1.665 2.58 0 2.58M235.806 297.945c1.668 0 1.664-2.58 0-2.58-1.667 0-1.667 2.58 0 2.58M271.853 280.534c1.667 0 1.664-2.58 0-2.58-1.667 0-1.667 2.58 0 2.58M214.877 293.302c1.664 0 1.664-2.58 0-2.58-1.668 0-1.668 2.58 0 2.58M229.992 267.508c-1.668 0-1.664 2.58 0 2.58 1.667 0 1.664-2.58 0-2.58M240.457 281.436c-1.667 0-1.664 2.58 0 2.58 1.667 0 1.664-2.58 0-2.58M241.62 201.606c1.668 0 1.664-2.58 0-2.58-1.667 0-1.667 2.58 0 2.58M273.015 148.213c1.668 0 1.664-2.58 0-2.58-1.667 0-1.664 2.58 0 2.58M242.78 100.365c-1.663 0-1.66 2.58 0 2.58 1.668 0 1.668-2.58 0-2.58M252.085 67.865c-1.668 0-1.664 2.58 0 2.58 1.667 0 1.664-2.58 0-2.58M252.085 91.08c-1.668 0-1.664 2.58 0 2.58 1.667 0 1.664-2.58 0-2.58M246.27 120.356c1.668 0 1.665-2.58 0-2.58-1.667 0-1.663 2.58 0 2.58M281.165 114.552c1.667-.014 1.643-2.594-.025-2.58-1.66.014-1.64 2.594.025 2.58M266.038 134.026c-1.667 0-1.664 2.58 0 2.58 1.668 0 1.664-2.58 0-2.58M276.503 104.106c1.667 0 1.667-2.58 0-2.58-1.668 0-1.664 2.58 0 2.58M218.364 129.383c-1.667 0-1.664 2.58 0 2.58 1.667 0 1.664-2.58 0-2.58M227.666 115.713c1.668 0 1.664-2.58 0-2.58-1.667 0-1.664 2.58 0 2.58M220.69 101.784c1.668 0 1.665-2.58 0-2.58-1.67 0-1.667 2.58 0 2.58M260.224 275.892c1.668 0 1.664-2.58 0-2.58-1.667 0-1.664 2.58 0 2.58M246.272 254.999c1.664 0 1.664-2.58 0-2.58-1.667 0-1.667 2.58 0 2.58M221.852 253.838c1.668 0 1.664-2.58 0-2.58-1.667 0-1.664 2.58 0 2.58M260.225 244.294c-1.667 0-1.667 2.58 0 2.58 1.668 0 1.664-2.58 0-2.58M274.177 241.07c1.668 0 1.668-2.58 0-2.58-1.667 0-1.664 2.58 0 2.58M253.247 226.883c-1.667 0-1.664 2.58 0 2.58 1.667 0 1.667-2.58 0-2.58M273.015 316.517c1.668 0 1.664-2.58 0-2.58-1.667 0-1.664 2.58 0 2.58M283.48 280.985c-2.326 0-2.324 3.483 0 3.483 2.328 0 2.325-3.483 0-3.483"/>
                    <path d="M281.595 318.973c-.584-2.434-2.926-4.053-5.43-3.646-1.726.279-3.073 1.453-3.683 2.97-1.46-.752-3.141-.752-4.527.03-.327-.824-.8-1.592-1.568-2.15a4.804 4.804 0 0 0-6.723 1.092 4.799 4.799 0 0 0-.79 1.752 1.82 1.82 0 0 0-.661-.133c-.959 0-1.497.62-1.667 1.345-.687-.805-1.71-1.345-3.088-1.345-1.42 0-2.452.583-3.136 1.433-.938-1.1-2.48-1.553-3.878-.956-.026.009-.04.032-.063.04-.428-1.288-1.517-2.329-3.274-2.329-2 0-3.085 1.345-3.369 2.87a3.856 3.856 0 0 0-2.713-1.058c-1.151 0-2.007.43-2.674 1.024-.278-1.087-1.111-2.006-2.557-2.006-.417 0-.774.089-1.092.222-.57-1.82-1.888-3.39-3.79-4.16-3.371-1.366-7.21.267-8.577 3.651-.008.032-.014.066-.025.1-.876-.46-1.917-.583-2.895-.165-.182.077-.306.219-.468.321a4.8 4.8 0 0 0-4.746-2.065 4.827 4.827 0 0 0-3.984 5.538c.423 2.633 2.898 4.425 5.52 3.998a4.81 4.81 0 0 0 3.097-1.897c.927.646 2.123.868 3.243.393.261-.114.462-.302.68-.47.71 1.24 1.798 2.273 3.221 2.848 3.207 1.302 6.82-.137 8.336-3.197.403.267.87.466 1.48.466.434 0 .814-.088 1.143-.233.045 2.096 1.4 4.158 4.088 4.158 2.538 0 3.845-1.837 4.029-3.8.544.404 1.19.706 2.053.706.623 0 1.148-.142 1.604-.37.777 1.652 2.7 2.423 4.39 1.704.291-.126.512-.327.75-.515.602 1.28 1.77 2.275 3.607 2.275 3.096 0 4.375-2.705 3.975-5.074.224.106.48.17.78.17.45 0 .788-.161 1.066-.383.334.72.785 1.388 1.471 1.883 1.574 1.14 3.59 1.163 5.177.267.326.822.8 1.593 1.568 2.15a4.807 4.807 0 0 0 6.723-1.092c.224-.31.311-.663.453-.998a4.748 4.748 0 0 0 3.031.526c1.489-.242 2.688-1.155 3.385-2.37.031 0 .051.018.083.018 2.166 0 2.285-3.103.425-3.538M246.853 236.878c-4.656 0-4.648 6.965 0 6.965 4.654 0 4.646-6.965 0-6.965M264.875 235.718c2.328 0 2.325-3.483 0-3.483-2.328 0-2.322 3.483 0 3.483M283.481 229.914c-2.328 0-2.325 3.482 0 3.482 2.326 0 2.323-3.482 0-3.482M237.812 208.037c-.974 1.974.976 3.742 2.46 3.21 1.329-.168 2.526-1.643 1.604-3.23-.971-1.675-3.148-1.842-4.064.02M210.223 247.325c-2.325 0-2.322 3.482 0 3.482 2.329 0 2.326-3.482 0-3.482M226.503 240.36c-2.326 0-2.323 3.483 0 3.483 2.33 0 2.323-3.483 0-3.483M210.225 280.985c-2.328 0-2.325 3.483 0 3.483 2.326 0 2.323-3.483 0-3.483M223.597 306.863v-.682c0-2.643-3.489-2.64-3.489 0v.682c0 2.643 3.489 2.636 3.489 0M218.946 267.057c4.655 0 4.646-6.964 0-6.964-4.655 0-4.65 6.964 0 6.964M217.781 231.075c-4.654 0-4.645 6.964 0 6.964 4.657 0 4.649-6.964 0-6.964M273.596 256.61c4.655 0 4.649-6.964 0-6.964-4.655 0-4.646 6.964 0 6.964M266.62 289.387v-.552c0-4.278-6.977-4.273-6.977 0v.552c0 4.278 6.977 4.27 6.977 0"/>
                    <path d="M251.476 315.807c4.692 0 4.684-7.098 0-7.098-.035 0-.057.014-.086.017 0-.443-.083-.892-.271-1.327-.74-1.7-2.755-2.494-4.499-1.772-1.746.722-2.56 2.686-1.82 4.386.56 1.288 1.846 2.049 3.192 2.035-.094 1.844 1.046 3.759 3.484 3.759M260.805 306.521c4.657 0 4.648-6.964 0-6.964-4.654 0-4.646 6.964 0 6.964M227.084 293.753c4.655 0 4.65-6.964 0-6.964-4.654 0-4.646 6.964 0 6.964M235.807 314.646c2.325 0 2.323-3.482 0-3.482-2.329 0-2.326 3.482 0 3.482M229.992 312.325c3.879 0 3.873-5.804 0-5.804-3.88 0-3.873 5.804 0 5.804M232.317 301.878c-2.328 0-2.322 3.482 0 3.482 2.329 0 2.323-3.482 0-3.482M243.945 294.914c-2.328 0-2.322 3.482 0 3.482 2.329 0 2.323-3.482 0-3.482M242.784 315.807c2.325 0 2.322-3.482 0-3.482-2.329 0-2.326 3.482 0 3.482M253.249 214.825c-2.329 0-2.326 3.482 0 3.482 2.325 0 2.322-3.482 0-3.482M258.48 199.735c4.656 0 4.647-6.964 0-6.964-4.655 0-4.646 6.964 0 6.964M221.27 197.414c-4.654 0-4.646 6.964 0 6.964 4.656 0 4.648-6.964 0-6.964M224.76 159.11c-4.655 0-4.65 6.965 0 6.965 4.655 0 4.646-6.965 0-6.965M236.388 169.557c4.654 0 4.646-6.964 0-6.964-4.655 0-4.65 6.964 0 6.964M281.734 139.378c4.658 0 4.65-6.964 0-6.964-4.651 0-4.646 6.964 0 6.964M238.713 185.807c4.655 0 4.647-6.964 0-6.964-4.654 0-4.649 6.964 0 6.964M217.783 182.325c4.656 0 4.645-6.965 0-6.965-4.654 0-4.649 6.965 0 6.965M231.737 227.593c4.654 0 4.646-6.965 0-6.965-4.655 0-4.65 6.965 0 6.965M249.178 134.735c4.655 0 4.647-6.964 0-6.964-4.656 0-4.647 6.964 0 6.964M231.737 97.593c4.654 0 4.646-6.965 0-6.965-4.655 0-4.65 6.965 0 6.965M214.876 218.307c2.328 0 2.322-3.482 0-3.482-2.328 0-2.325 3.482 0 3.482M216.04 146.343c2.325 0 2.322-3.483 0-3.483-2.329 0-2.326 3.483 0 3.483M268.946 213.664c-4.655 0-4.65 6.964 0 6.964 4.655 0 4.646-6.964 0-6.964M280.573 196.253c-4.655 0-4.646 6.965 0 6.965 4.654 0 4.649-6.965 0-6.965M281.737 162.593c-4.657 0-4.648 6.964 0 6.964 4.654 0 4.646-6.964 0-6.964M270.69 195.093c2.326 0 2.324-3.483 0-3.483-2.33 0-2.323 3.483 0 3.483M243.944 175.36c2.329 0 2.326-3.482 0-3.482-2.325 0-2.322 3.482 0 3.482M248.166 154.525c-2.245.536-1.383 3.901.86 3.368 2.248-.537 1.383-3.902-.86-3.368M257.167 105.66c2.246-.536 1.38-3.901-.862-3.367-2.246.536-1.38 3.901.862 3.367M260.956 79.078c-2.246.534-1.38 3.904.862 3.368 2.246-.534 1.381-3.902-.862-3.368M216.469 107.982c2.245-.537 1.383-3.904-.86-3.367-2.248.534-1.383 3.9.86 3.367M262.549 149.825c2.328 0 2.326-3.482 0-3.482s-2.323 3.482 0 3.482M256.737 175.36c-2.328 0-2.325 3.483 0 3.483 2.326 0 2.323-3.483 0-3.483M264.875 170.718c2.328 0 2.325-3.483 0-3.483-2.328 0-2.322 3.483 0 3.483M236.969 148.664c2.328 0 2.322-3.482 0-3.482-2.329 0-2.323 3.482 0 3.482M232.316 127.771c-2.325 0-2.322 3.482 0 3.482 2.329 0 2.326-3.482 0-3.482M221.853 87.146c2.328 0 2.322-3.482 0-3.482-2.328 0-2.325 3.482 0 3.482M234.642 70.896c-2.326 0-2.323 3.482 0 3.482 2.328 0 2.326-3.482 0-3.482M241.62 83.664c-2.329 0-2.323 3.482 0 3.482 2.328 0 2.323-3.482 0-3.482M266.04 95.271c2.325 0 2.322-3.482 0-3.482-2.329 0-2.326 3.482 0 3.482M278.83 89.468c2.326 0 2.323-3.483 0-3.483-2.328 0-2.325 3.483 0 3.483M270.689 119.646c-2.328 0-2.322 3.482 0 3.482 2.328 0 2.325-3.482 0-3.482M219.526 192.771c2.33 0 2.324-3.482 0-3.482-2.326 0-2.323 3.482 0 3.482M257.319 254.289c-4.657 0-4.649 6.964 0 6.964 4.654 0 4.645-6.964 0-6.964M241.62 233.396c2.327 0 2.324-3.482 0-3.482-2.329 0-2.323 3.482 0 3.482M125.922 305.36a4.646 4.646 0 0 0-4.65-4.642 4.648 4.648 0 0 0-4.652 4.642 4.648 4.648 0 0 0 4.652 4.643 4.646 4.646 0 0 0 4.65-4.643M86.387 269.378a4.646 4.646 0 0 0 4.653 4.643 4.646 4.646 0 0 0 4.65-4.643 4.646 4.646 0 0 0-4.65-4.643 4.646 4.646 0 0 0-4.653 4.643M82.899 257.19a2.905 2.905 0 0 0-2.907-2.901 2.905 2.905 0 0 0-2.907 2.902 2.905 2.905 0 0 0 2.907 2.902c1.605 0 2.907-1.3 2.907-2.902M75.312 280.754a2.898 2.898 0 0 0 1.541-3.802 2.91 2.91 0 0 0-3.811-1.54 2.9 2.9 0 1 0 2.27 5.342M93.973 283.538a2.897 2.897 0 0 0-1.539 3.805 2.908 2.908 0 0 0 3.81 1.536 2.9 2.9 0 0 0 1.54-3.802 2.91 2.91 0 0 0-3.81-1.54M56.764 299.788a2.899 2.899 0 0 0-1.54 3.805 2.908 2.908 0 0 0 3.81 1.536 2.902 2.902 0 0 0 1.541-3.805 2.91 2.91 0 0 0-3.811-1.536M116.037 270.539c2.329 0 2.326-3.482 0-3.482-2.325 0-2.322 3.482 0 3.482M112.55 313.034c1.667 0 1.664-2.58 0-2.58-1.667 0-1.664 2.58 0 2.58M83.48 310.713c1.668 0 1.664-2.58 0-2.58-1.667 0-1.664 2.58 0 2.58M79.993 297.945c1.663 0 1.663-2.58 0-2.58-1.668 0-1.664 2.58 0 2.58M116.038 280.534c1.668 0 1.664-2.58 0-2.58-1.667 0-1.664 2.58 0 2.58M59.061 293.302c1.667 0 1.664-2.58 0-2.58s-1.664 2.58 0 2.58M74.177 270.088c1.667 0 1.664-2.58 0-2.58s-1.66 2.58 0 2.58M85.805 281.436c-1.664 0-1.664 2.58 0 2.58 1.668 0 1.664-2.58 0-2.58M86.969 201.606c1.667 0 1.664-2.58 0-2.58-1.668 0-1.664 2.58 0 2.58M117.201 148.213c1.668 0 1.664-2.58 0-2.58-1.667 0-1.664 2.58 0 2.58M86.968 100.365c-1.664 0-1.664 2.58 0 2.58 1.667 0 1.664-2.58 0-2.58M96.272 70.445c1.664 0 1.664-2.58 0-2.58-1.668 0-1.664 2.58 0 2.58M97.434 93.66c1.667 0 1.664-2.58 0-2.58-1.668 0-1.664 2.58 0 2.58M91.62 120.356c1.667 0 1.663-2.58 0-2.58-1.665 0-1.665 2.58 0 2.58M126.515 114.552c1.667-.014 1.64-2.594-.021-2.58-1.668.014-1.643 2.594.02 2.58M110.224 134.026c-1.667 0-1.664 2.58 0 2.58 1.668 0 1.664-2.58 0-2.58M120.69 104.106c1.664 0 1.664-2.58 0-2.58-1.667 0-1.664 2.58 0 2.58M62.55 131.963c1.667 0 1.664-2.58 0-2.58-1.667 0-1.664 2.58 0 2.58M73.014 113.133c-1.663 0-1.663 2.58 0 2.58 1.668 0 1.664-2.58 0-2.58M67.201 101.784c1.668 0 1.664-2.58 0-2.58-1.667 0-1.664 2.58 0 2.58M105.573 273.311c-1.664 0-1.664 2.58 0 2.58 1.667 0 1.664-2.58 0-2.58M91.62 254.999c1.667 0 1.664-2.58 0-2.58-1.668 0-1.664 2.58 0 2.58M67.201 253.838c1.668 0 1.664-2.58 0-2.58-1.667 0-1.664 2.58 0 2.58M104.411 246.874c1.664 0 1.664-2.58 0-2.58-1.667 0-1.664 2.58 0 2.58M119.527 238.49c-1.668 0-1.664 2.58 0 2.58 1.667 0 1.664-2.58 0-2.58M97.434 226.883c-1.667 0-1.664 2.58 0 2.58s1.664-2.58 0-2.58M117.201 316.517c1.668 0 1.664-2.58 0-2.58-1.667 0-1.664 2.58 0 2.58M127.666 280.985c-2.328 0-2.322 3.483 0 3.483 2.327 0 2.325-3.483 0-3.483"/>
                    <path d="M128.104 318.973c-.581-2.434-2.926-4.053-5.43-3.646-1.723.279-3.073 1.453-3.68 2.97-1.463-.752-3.144-.752-4.528.03-.326-.824-.799-1.592-1.57-2.15a4.805 4.805 0 0 0-6.723 1.092 4.792 4.792 0 0 0-.788 1.752 1.846 1.846 0 0 0-.66-.133c-.962 0-1.5.62-1.668 1.345-.686-.805-1.712-1.345-3.087-1.345-1.42 0-2.455.583-3.136 1.433-.941-1.1-2.48-1.553-3.881-.956-.023.009-.037.032-.06.04-.43-1.288-1.517-2.329-3.277-2.329-2 0-3.085 1.345-3.366 2.87a3.867 3.867 0 0 0-2.713-1.058c-1.154 0-2.008.43-2.674 1.026-.28-1.089-1.114-2.008-2.56-2.008-.417 0-.771.089-1.092.222-.57-1.82-1.888-3.39-3.788-4.16a6.583 6.583 0 0 0-8.576 3.651c-.012.032-.017.066-.029.1-.873-.46-1.913-.583-2.891-.165-.182.077-.31.219-.471.321-1.018-1.504-2.835-2.375-4.746-2.065a4.827 4.827 0 0 0-3.981 5.538 4.814 4.814 0 0 0 5.52 3.998 4.81 4.81 0 0 0 3.096-1.897c.927.646 2.124.868 3.241.393.264-.114.462-.302.68-.47.71 1.24 1.798 2.273 3.221 2.848 3.21 1.302 6.82-.137 8.339-3.197.4.267.867.466 1.477.466.437 0 .814-.085 1.143-.233.045 2.096 1.4 4.158 4.09 4.158 2.535 0 3.843-1.837 4.03-3.8.541.404 1.19.706 2.05.706.623 0 1.148-.142 1.604-.37.777 1.652 2.702 2.423 4.392 1.704.29-.126.513-.327.749-.515.604 1.28 1.769 2.275 3.609 2.275 3.093 0 4.375-2.705 3.972-5.074.224.106.482.17.783.17.45 0 .788-.161 1.063-.383.337.72.788 1.388 1.474 1.883 1.574 1.14 3.59 1.163 5.174.267.327.822.8 1.593 1.571 2.15a4.804 4.804 0 0 0 6.72-1.092c.224-.31.312-.663.453-.998a4.76 4.76 0 0 0 3.034.526c1.489-.242 2.685-1.155 3.383-2.37.034 0 .05.018.085.018 2.166 0 2.285-3.103.422-3.538M92.201 236.878c-4.655 0-4.647 6.965 0 6.965 4.656 0 4.647-6.965 0-6.965M110.224 235.718c2.327 0 2.325-3.483 0-3.483-2.327 0-2.324 3.483 0 3.483M127.666 229.914c-2.327 0-2.324 3.482 0 3.482 2.327 0 2.324-3.482 0-3.482M81.998 208.037c-.974 1.974.974 3.742 2.461 3.21 1.325-.168 2.526-1.643 1.603-3.23-.97-1.675-3.145-1.842-4.064.02M56.736 250.807c2.327 0 2.324-3.482 0-3.482-2.328 0-2.323 3.482 0 3.482M71.852 240.36c-2.328 0-2.322 3.483 0 3.483 2.328 0 2.325-3.483 0-3.483M56.736 284.468c2.327 0 2.324-3.483 0-3.483-2.327 0-2.324 3.483 0 3.483M68.945 306.863v-.682c0-2.643-3.488-2.64-3.488 0v.682c0 2.643 3.488 2.636 3.488 0M64.294 267.057c4.656 0 4.647-6.964 0-6.964-4.655 0-4.647 6.964 0 6.964M63.131 231.075c-4.655 0-4.647 6.964 0 6.964 4.656 0 4.647-6.964 0-6.964M120.109 256.61c4.654 0 4.646-6.964 0-6.964-4.655 0-4.65 6.964 0 6.964M113.131 289.387v-.552c0-4.278-6.976-4.273-6.976 0v.552c0 4.278 6.976 4.27 6.976 0"/>
                    <path d="M97.987 315.807c4.693 0 4.684-7.098 0-7.098-.034 0-.057.014-.088.017a3.26 3.26 0 0 0-.269-1.327c-.74-1.7-2.755-2.494-4.498-1.772-1.746.722-2.56 2.686-1.82 4.386.56 1.288 1.846 2.049 3.195 2.035-.095 1.844 1.043 3.759 3.48 3.759M106.155 306.521c4.655 0 4.647-6.964 0-6.964-4.656 0-4.647 6.964 0 6.964M73.597 293.753c4.655 0 4.646-6.964 0-6.964-4.656 0-4.647 6.964 0 6.964M79.992 314.646c2.327 0 2.324-3.482 0-3.482-2.327 0-2.324 3.482 0 3.482M74.177 312.325c3.88 0 3.874-5.804 0-5.804-3.878 0-3.872 5.804 0 5.804M77.667 301.878c-2.328 0-2.325 3.482 0 3.482 2.328 0 2.322-3.482 0-3.482M89.294 294.914c-2.328 0-2.322 3.482 0 3.482 2.327 0 2.325-3.482 0-3.482M86.969 315.807c2.327 0 2.324-3.482 0-3.482-2.327 0-2.325 3.482 0 3.482M97.435 214.825c-2.329 0-2.326 3.482 0 3.482 2.325 0 2.323-3.482 0-3.482M103.83 199.735c4.654 0 4.646-6.964 0-6.964-4.656 0-4.648 6.964 0 6.964M65.457 197.414c-4.655 0-4.647 6.964 0 6.964 4.655 0 4.647-6.964 0-6.964M70.107 166.075c4.655 0 4.65-6.965 0-6.965-4.653 0-4.647 6.965 0 6.965M80.573 162.593c-4.655 0-4.647 6.964 0 6.964 4.656 0 4.647-6.964 0-6.964M125.922 132.414c-4.655 0-4.647 6.964 0 6.964 4.656 0 4.647-6.964 0-6.964M84.062 185.807c4.655 0 4.647-6.964 0-6.964-4.656 0-4.647 6.964 0 6.964M63.131 182.325c4.656 0 4.647-6.965 0-6.965-4.655 0-4.647 6.965 0 6.965M77.085 227.593c4.655 0 4.647-6.965 0-6.965-4.656 0-4.647 6.965 0 6.965M93.364 134.735c4.655 0 4.647-6.964 0-6.964-4.655 0-4.647 6.964 0 6.964M77.085 97.593c4.655 0 4.647-6.965 0-6.965-4.656 0-4.647 6.965 0 6.965M59.062 218.307c2.328 0 2.322-3.482 0-3.482-2.328 0-2.325 3.482 0 3.482M61.387 142.86c-2.327 0-2.324 3.483 0 3.483 2.327 0 2.324-3.483 0-3.483M113.131 220.628c4.656 0 4.647-6.964 0-6.964-4.655 0-4.647 6.964 0 6.964M125.922 196.253c-4.655 0-4.647 6.965 0 6.965 4.656 0 4.647-6.965 0-6.965M125.922 162.593c-4.655 0-4.647 6.964 0 6.964 4.656 0 4.647-6.964 0-6.964M114.876 195.093c2.328 0 2.322-3.483 0-3.483-2.328 0-2.325 3.483 0 3.483M90.457 175.36c2.327 0 2.324-3.482 0-3.482-2.327 0-2.324 3.482 0 3.482M92.353 154.525c-2.247.536-1.384 3.901.86 3.368 2.246-.537 1.383-3.902-.86-3.368M101.655 102.293c-2.246.536-1.384 3.901.86 3.367 2.246-.536 1.384-3.901-.86-3.367M105.143 79.078c-2.246.534-1.383 3.904.86 3.368 2.248-.534 1.383-3.902-.86-3.368M61.817 107.982c2.246-.537 1.384-3.904-.86-3.367-2.246.534-1.384 3.9.86 3.367M106.736 146.343c-2.328 0-2.323 3.482 0 3.482 2.327 0 2.324-3.482 0-3.482M103.248 175.36c-2.327 0-2.324 3.483 0 3.483 2.327 0 2.324-3.483 0-3.483M110.224 170.718c2.327 0 2.325-3.483 0-3.483-2.327 0-2.324 3.483 0 3.483M82.317 145.182c-2.327 0-2.324 3.482 0 3.482 2.327 0 2.325-3.482 0-3.482M77.667 127.771c-2.328 0-2.325 3.482 0 3.482 2.328 0 2.322-3.482 0-3.482M68.364 87.146c2.328 0 2.323-3.482 0-3.482-2.327 0-2.324 3.482 0 3.482M79.992 74.378c2.327 0 2.324-3.482 0-3.482-2.327 0-2.324 3.482 0 3.482M85.806 87.146c2.328 0 2.322-3.482 0-3.482-2.327 0-2.325 3.482 0 3.482M111.388 95.271c2.327 0 2.322-3.482 0-3.482-2.328 0-2.325 3.482 0 3.482M123.015 89.468c2.327 0 2.324-3.483 0-3.483-2.327 0-2.324 3.483 0 3.483M184.644 62.061c-1.668 0-1.668 2.58 0 2.58 1.667 0 1.664-2.58 0-2.58M162.55 28.4c-1.667 0-1.664 2.58 0 2.58 1.667 0 1.664-2.58 0-2.58M103.248 25.177c1.667 0 1.664-2.58 0-2.58-1.668 0-1.664 2.58 0 2.58M195.108 52.776c-1.667 0-1.664 2.58 0 2.58 1.668 0 1.664-2.58 0-2.58M224.189 76.249c1.667-.014 1.643-2.594-.025-2.58-1.664.013-1.64 2.594.025 2.58M218.364 65.802c1.667 0 1.664-2.58 0-2.58-1.667 0-1.664 2.58 0 2.58M170.689 74.83c-1.664 0-1.664 2.58 0 2.58 1.667 0 1.664-2.58 0-2.58M163.713 60.9c-1.668 0-1.664 2.58 0 2.58 1.667 0 1.664-2.58 0-2.58M159.643 51.164c-4.655 0-4.647 6.964 0 6.964 4.655 0 4.647-6.964 0-6.964M198.165 63.99c-2.245.533-1.38 3.903.863 3.366 2.246-.534 1.38-3.903-.863-3.366M201.654 44.257c-2.246.536-1.381 3.901.862 3.368 2.246-.537 1.38-3.902-.862-3.368M158.631 65.15c-2.245.536-1.383 3.901.86 3.368 2.248-.537 1.383-3.902-.86-3.368M169.527 51.164c-2.327 0-2.325 3.482 0 3.482 2.328 0 2.322-3.482 0-3.482M177.665 31.432c-2.325 0-2.323 3.482 0 3.482 2.329 0 2.326-3.482 0-3.482M184.644 44.2c-2.328 0-2.325 3.482 0 3.482 2.327 0 2.322-3.482 0-3.482M185.806 25.628c-2.329 0-2.323 3.482 0 3.482 2.328 0 2.323-3.482 0-3.482M209.063 55.807c2.325 0 2.322-3.482 0-3.482-2.329 0-2.326 3.482 0 3.482M217.202 58.128c2.326 0 2.323-3.482 0-3.482-2.328 0-2.325 3.482 0 3.482M225.108 40.402c-1.158-1.198-3.014.596-1.86 1.794 1.155 1.194 3.014-.6 1.86-1.794M247.198 29.956c-1.155-1.198-3.01.595-1.856 1.793 1.155 1.194 3.014-.599 1.856-1.793M236.039 43.355c1.158 1.195 3.014-.599 1.86-1.793-1.159-1.194-3.015.599-1.86 1.793M244.866 76.376c-1.168-1.187-3.006.624-1.841 1.808 1.165 1.187 3.007-.624 1.841-1.808M247.198 65.938c-1.155-1.198-3.01.595-1.856 1.793 1.155 1.195 3.014-.599 1.856-1.793M204.641 41.034c1.158 1.194 3.018-.6 1.863-1.793-1.158-1.195-3.014.598-1.863 1.793M211.154 24.151c-1.158-1.194-3.014.6-1.859 1.794 1.155 1.194 3.014-.6 1.86-1.794M227.265 22.05c-3.117-3.227-8.126 1.612-5.012 4.836 3.12 3.226 8.126-1.615 5.012-4.836M224.403 53.208c1.923 1.186 3.797-1.742 1.876-2.928-1.926-1.184-3.798 1.745-1.876 2.928M251.147 42.761c1.922 1.187 3.797-1.743 1.878-2.927-1.928-1.186-3.8 1.744-1.878 2.927M206.512 18.941c-1.924-1.186-3.799 1.743-1.877 2.929 1.927 1.183 3.796-1.743 1.877-2.929M239.385 31.965c-1.56-1.615-4.063.806-2.507 2.417 1.557 1.612 4.063-.806 2.507-2.417M242.873 56.338c-1.558-1.611-4.063.806-2.507 2.418 1.559 1.615 4.063-.806 2.507-2.418M269.436 70.363c1.56 1.615 4.065-.806 2.506-2.417-1.557-1.612-4.062.806-2.506 2.417M256.827 62.142c-1.559-1.612-4.063.806-2.507 2.418 1.558 1.615 4.063-.806 2.507-2.418M266.129 57.5c-1.56-1.615-4.063.807-2.506 2.417 1.559 1.615 4.062-.807 2.506-2.416M143.946 21.695c1.664 0 1.664-2.58 0-2.58s-1.667 2.58 0 2.58M147.434 52.776c-1.664 0-1.668 2.58 0 2.58 1.664 0 1.667-2.58 0-2.58M154.411 46.972c-1.664 0-1.667 2.58 0 2.58 1.664 0 1.664-2.58 0-2.58M159.062 64.642c1.664 0 1.667-2.58 0-2.58-1.664 0-1.668 2.58 0 2.58M136.085 51.15c-1.664 0-1.668 2.58 0 2.58 1.664 0 1.667-2.58 0-2.58M138.085 79.15c-1.664 0-1.668 2.58 0 2.58 1.664 0 1.667-2.58 0-2.58M139.085 97.15c-1.664 0-1.668 2.58 0 2.58 1.664 0 1.667-2.58 0-2.58M165.085 79.15c-1.664 0-1.668 2.58 0 2.58 1.664 0 1.667-2.58 0-2.58M192.085 77.15c-1.664 0-1.668 2.58 0 2.58 1.664 0 1.667-2.58 0-2.58M117.19 76.249c1.664.014 1.688-2.567.021-2.58-1.66-.014-1.688 2.566-.021 2.58M123.014 65.802c1.664 0 1.668-2.58 0-2.58-1.663 0-1.663 2.58 0 2.58M110.224 54.195c1.664 0 1.668-2.58 0-2.58-1.664 0-1.667 2.58 0 2.58M142.515 63.757c-2.244-.536-3.106 2.833-.86 3.367 2.244.537 3.106-2.833.86-3.367M144.515 90.757c-2.244-.536-3.106 2.833-.86 3.367 2.244.537 3.106-2.833.86-3.367M145.515 108.757c-2.244-.536-3.106 2.833-.86 3.367 2.244.537 3.106-2.833.86-3.367M171.515 90.757c-2.244-.536-3.106 2.833-.86 3.367 2.244.537 3.106-2.833.86-3.367M198.515 88.757c-2.244-.536-3.106 2.833-.86 3.367 2.244.537 3.106-2.833.86-3.367M224.515 87.757c-2.244-.536-3.106 2.833-.86 3.367 2.244.537 3.106-2.833.86-3.367M144.376 34.971c-2.243-.533-3.108 2.832-.86 3.368 2.243.534 3.105-2.831.86-3.368M151.352 39.614c-2.244-.534-3.106 2.833-.86 3.367 2.244.537 3.106-2.833.86-3.367M133.084 52.7c-2.322 0-2.327 3.482 0 3.482 2.325 0 2.328-3.482 0-3.482"/>
                    <path d="M136.084 79.7c-2.322 0-2.327 3.482 0 3.482 2.325 0 2.328-3.482 0-3.482M137.084 97.7c-2.322 0-2.327 3.482 0 3.482 2.325 0 2.328-3.482 0-3.482M163.084 79.7c-2.322 0-2.327 3.482 0 3.482 2.325 0 2.328-3.482 0-3.482M190.084 77.7c-2.322 0-2.327 3.482 0 3.482 2.325 0 2.328-3.482 0-3.482M125.34 34.914c-2.323 0-2.326 3.482 0 3.482 2.325 0 2.328-3.482 0-3.482M118.131 42.195c1.155-1.195-.705-2.988-1.86-1.794-1.154 1.195.702 2.988 1.86 1.794M89.061 27.105c1.155-1.194-.704-2.987-1.86-1.793-1.154 1.194.702 2.988 1.86 1.793M104.178 51.48c1.155-1.194-.704-2.987-1.86-1.793-1.157 1.194.702 2.988 1.86 1.793M105.34 63.087c1.155-1.195-.701-2.988-1.86-1.794-1.154 1.198.702 2.991 1.86 1.794M99.517 78.184c1.166-1.184-.676-2.995-1.841-1.808-1.166 1.184.676 2.995 1.841 1.808M94.875 67.73c1.155-1.194-.704-2.987-1.86-1.793-1.154 1.194.702 2.988 1.86 1.793M137.898 37.55c1.155-1.194-.704-2.987-1.859-1.793-1.154 1.198.701 2.992 1.86 1.794M130.226 24.151c-1.158 1.195.7 2.988 1.859 1.794 1.155-1.195-.701-2.988-1.86-1.794M149.993 28.795c-1.158 1.194.701 2.988 1.86 1.793 1.154-1.197-.702-2.99-1.86-1.793M130.754 21.081c3.113-3.222-1.895-8.062-5.013-4.834-3.112 3.222 1.893 8.062 5.013 4.834M122.146 46.977c-1.921 1.186-.047 4.112 1.877 2.928 1.922-1.186.047-4.114-1.877-2.928M124.146 73.977c-1.921 1.186-.047 4.112 1.877 2.928 1.922-1.186.047-4.114-1.877-2.928M125.146 91.977c-1.921 1.186-.047 4.112 1.877 2.928 1.922-1.186.047-4.114-1.877-2.928M151.146 73.977c-1.921 1.186-.047 4.112 1.877 2.928 1.922-1.186.047-4.114-1.877-2.928M178.146 71.977c-1.921 1.186-.047 4.112 1.877 2.928 1.922-1.186.047-4.114-1.877-2.928M204.146 70.977c-1.921 1.186-.047 4.112 1.877 2.928 1.922-1.186.047-4.114-1.877-2.928M91.396 42.761c1.92-1.183.047-4.113-1.878-2.927-1.92 1.184-.047 4.114 1.878 2.927M137.193 24.745c-1.92 1.185-.05 4.113 1.877 2.927 1.921-1.183.047-4.113-1.877-2.927M151.86 21.869c1.922-1.186.048-4.113-1.876-2.928-1.922 1.183-.048 4.114 1.877 2.928M106.825 34.382c1.56-1.611-.946-4.032-2.505-2.417-1.556 1.611.946 4.03 2.505 2.417M95.199 57.596c1.555-1.612-.946-4.03-2.507-2.418-1.556 1.612.948 4.032 2.507 2.418M70.78 70.363c1.556-1.611-.946-4.03-2.507-2.417-1.555 1.611.949 4.032 2.507 2.417M81.245 63.4c1.556-1.612-.946-4.032-2.507-2.418-1.555 1.612.949 4.031 2.507 2.417M73.106 43.668c1.555-1.612-.946-4.032-2.507-2.418-1.556 1.612.948 4.03 2.507 2.418M116.038 123.128c2.327 0 2.325-3.482 0-3.482-2.327 0-2.324 3.482 0 3.482M64.876 192.771c2.328 0 2.322-3.482 0-3.482-2.329 0-2.323 3.482 0 3.482M102.666 254.289c-4.655 0-4.647 6.964 0 6.964 4.656 0 4.647-6.964 0-6.964M85.806 229.914c-2.327 0-2.325 3.482 0 3.482 2.328 0 2.322-3.482 0-3.482M59.643 303.039a4.646 4.646 0 0 0-4.651 4.643 4.646 4.646 0 0 0 4.651 4.643 4.646 4.646 0 0 0 4.651-4.643 4.646 4.646 0 0 0-4.651-4.643M84.062 270.539a4.646 4.646 0 0 0 4.65 4.643 4.646 4.646 0 0 0 4.652-4.643 4.646 4.646 0 0 0-4.651-4.643 4.646 4.646 0 0 0-4.651 4.643"/>
                    <path d="M102.666 259.512a2.906 2.906 0 0 0-2.908-2.902 2.902 2.902 0 0 0 0 5.804 2.904 2.904 0 0 0 2.908-2.902M104.06 278.111a2.902 2.902 0 0 0 1.54 3.805 2.91 2.91 0 0 0 3.811-1.539 2.899 2.899 0 0 0-1.539-3.802 2.908 2.908 0 0 0-3.811 1.536M84.67 291.2a2.908 2.908 0 0 0 3.812-1.536 2.899 2.899 0 0 0-1.541-3.803 2.904 2.904 0 0 0-3.81 1.536 2.897 2.897 0 0 0 1.54 3.803M120.717 306.29a2.91 2.91 0 0 0 3.812-1.536 2.902 2.902 0 0 0-1.542-3.805 2.907 2.907 0 0 0-3.81 1.539 2.897 2.897 0 0 0 1.54 3.802M90.765 312.337c.74-1.703-.074-3.665-1.82-4.39-1.744-.719-3.758.073-4.498 1.776-.19.432-.272.88-.27 1.323-.033 0-.053-.016-.088-.016-4.683 0-4.692 7.098 0 7.098 2.435 0 3.578-1.914 3.481-3.757 1.349.012 2.635-.75 3.195-2.034M64.876 269.378c-2.323 0-2.329 3.482 0 3.482 2.322 0 2.328-3.482 0-3.482M68.364 315.356c1.664 0 1.667-2.58 0-2.58-1.664 0-1.667 2.58 0 2.58M96.272 311.874c1.664 0 1.664-2.58 0-2.58s-1.668 2.58 0 2.58M99.76 297.686c-1.665 0-1.668 2.58 0 2.58 1.663 0 1.667-2.58 0-2.58M63.714 280.276c-1.664 0-1.667 2.58 0 2.58 1.66 0 1.664-2.58 0-2.58M120.69 295.624c1.663 0 1.667-2.58 0-2.58-1.664 0-1.668 2.58 0 2.58M105.573 268.669c-1.664 0-1.667 2.58 0 2.58 1.664 0 1.668-2.58 0-2.58M95.108 283.758c-1.664 0-1.667 2.58 0 2.58 1.664 0 1.668-2.58 0-2.58M92.782 203.927c1.664 0 1.667-2.58 0-2.58-1.664 0-1.664 2.58 0 2.58M62.55 149.374c1.665 0 1.665-2.58 0-2.58-1.663 0-1.667 2.58 0 2.58M92.782 101.526c-1.664 0-1.664 2.58 0 2.58s1.667-2.58 0-2.58M83.48 70.186c-1.664 0-1.667 2.58 0 2.58 1.664 0 1.668-2.58 0-2.58M83.48 94.82c1.664 0 1.668-2.58 0-2.58-1.664 0-1.667 2.58 0 2.58M89.294 122.677c1.664 0 1.668-2.58 0-2.58-1.664 0-1.667 2.58 0 2.58M54.4 115.713c1.664.014 1.688-2.566.02-2.58-1.663-.014-1.687 2.566-.02 2.58M69.527 135.186c-1.664 0-1.668 2.58 0 2.58 1.664 0 1.667-2.58 0-2.58M59.062 105.267c1.664 0 1.667-2.58 0-2.58-1.664 0-1.668 2.58 0 2.58M117.202 131.704c-1.663 0-1.667 2.58 0 2.58 1.66 0 1.664-2.58 0-2.58M106.736 116.874c1.664 0 1.667-2.58 0-2.58-1.664 0-1.667 2.58 0 2.58M114.876 101.526c-1.664 0-1.667 2.58 0 2.58 1.664 0 1.664-2.58 0-2.58M75.34 275.633c-1.663 0-1.667 2.58 0 2.58 1.665 0 1.668-2.58 0-2.58M89.294 257.32c1.664 0 1.668-2.58 0-2.58-1.664 0-1.667 2.58 0 2.58M113.713 256.16c1.664 0 1.664-2.58 0-2.58s-1.667 2.58 0 2.58M75.34 245.454c-1.663 0-1.667 2.58 0 2.58 1.665 0 1.668-2.58 0-2.58M61.389 243.392c1.66 0 1.663-2.58 0-2.58-1.664 0-1.668 2.58 0 2.58M82.317 229.204c-1.664 0-1.667 2.58 0 2.58 1.664 0 1.668-2.58 0-2.58M62.55 317.677c1.665 0 1.665-2.58 0-2.58-1.663 0-1.667 2.58 0 2.58M52.084 283.307c-2.322 0-2.327 3.482 0 3.482 2.325 0 2.328-3.482 0-3.482M88.713 239.2c-4.647 0-4.656 6.964 0 6.964 4.647 0 4.655-6.964 0-6.964M70.69 238.039c2.322 0 2.328-3.482 0-3.482-2.325 0-2.328 3.482 0 3.482M52.084 235.718c2.325 0 2.328-3.483 0-3.483-2.322 0-2.327 3.483 0 3.483M97.753 210.36c-.916-1.866-3.09-1.696-4.064-.02-.922 1.583.278 3.06 1.603 3.227 1.487.536 3.435-1.233 2.461-3.207M125.34 251.968c2.325 0 2.328-3.483 0-3.483-2.322 0-2.328 3.483 0 3.483M109.063 246.164c2.322 0 2.325-3.482 0-3.482-2.326 0-2.329 3.482 0 3.482M125.34 286.789c2.325 0 2.328-3.482 0-3.482-2.322 0-2.328 3.482 0 3.482M115.457 308.023v-.682c0-2.64-3.488-2.642-3.488 0v.682c0 2.639 3.488 2.642 3.488 0M116.62 262.414c-4.647 0-4.656 6.964 0 6.964 4.647 0 4.655-6.964 0-6.964M117.783 232.235c-4.647 0-4.656 6.965 0 6.965 4.646 0 4.655-6.965 0-6.965M61.969 257.771c4.647 0 4.655-6.964 0-6.964-4.647 0-4.656 6.964 0 6.964M74.76 290.548v-.553c0-4.272-6.977-4.277-6.977 0v.553c0 4.27 6.976 4.278 6.976 0M74.76 307.682c4.646 0 4.655-6.964 0-6.964-4.648 0-4.656 6.964 0 6.964M108.48 287.95c-4.647 0-4.655 6.964 0 6.964 4.647 0 4.656-6.964 0-6.964M99.759 316.968c2.325 0 2.327-3.483 0-3.483-2.322 0-2.328 3.483 0 3.483M105.574 314.646c3.874 0 3.877-5.803 0-5.803-3.874 0-3.88 5.803 0 5.803M103.248 307.682c2.324 0 2.327-3.482 0-3.482-2.324 0-2.327 3.482 0 3.482M91.62 296.075c-2.324 0-2.327 3.482 0 3.482 2.324 0 2.327-3.482 0-3.482M92.782 316.968c2.325 0 2.328-3.483 0-3.483-2.322 0-2.328 3.483 0 3.483M82.318 220.628c2.322 0 2.328-3.482 0-3.482-2.325 0-2.328 3.482 0 3.482M75.922 193.932c-4.647 0-4.655 6.964 0 6.964 4.647 0 4.656-6.964 0-6.964M114.294 206.7c4.647 0 4.656-6.965 0-6.965-4.647 0-4.655 6.965 0 6.965M110.806 167.235c4.647 0 4.655-6.964 0-6.964-4.647 0-4.656 6.964 0 6.964M99.178 171.878c4.647 0 4.655-6.964 0-6.964-4.647 0-4.656 6.964 0 6.964M53.83 140.539c4.646 0 4.654-6.964 0-6.964-4.648 0-4.656 6.964 0 6.964M96.852 186.968c4.647 0 4.656-6.965 0-6.965-4.647 0-4.655 6.965 0 6.965M117.783 184.646c4.646 0 4.655-6.964 0-6.964-4.647 0-4.656 6.964 0 6.964M103.83 221.789c-4.648 0-4.656 6.964 0 6.964 4.646 0 4.654-6.964 0-6.964M86.387 137.057c4.647 0 4.656-6.964 0-6.964-4.647 0-4.655 6.964 0 6.964M103.83 91.789c-4.648 0-4.656 6.964 0 6.964 4.646 0 4.654-6.964 0-6.964M120.69 220.628c2.324 0 2.327-3.482 0-3.482-2.325 0-2.327 3.482 0 3.482M118.364 148.664c2.324 0 2.327-3.482 0-3.482-2.324 0-2.327 3.482 0 3.482M66.62 214.825c-4.647 0-4.656 6.964 0 6.964 4.647 0 4.655-6.964 0-6.964M53.83 198.575c-4.648 0-4.656 6.964 0 6.964 4.646 0 4.654-6.964 0-6.964M53.83 171.878c4.646 0 4.654-6.964 0-6.964-4.648 0-4.656 6.964 0 6.964M64.876 197.414c2.322 0 2.328-3.482 0-3.482-2.323 0-2.329 3.482 0 3.482M90.457 173.039c-2.324 0-2.327 3.482 0 3.482 2.324 0 2.327-3.482 0-3.482M87.398 156.847c-2.243-.537-3.106 2.833-.86 3.366 2.244.537 3.107-2.832.86-3.366M78.398 107.982c2.244.533 3.109-2.832.86-3.368-2.24-.534-3.106 2.831-.86 3.368M73.747 84.768c2.243.533 3.109-2.832.86-3.368-2.24-.534-3.106 2.831-.86 3.368M117.934 109.142c2.242.537 3.107-2.833.86-3.367-2.244-.536-3.106 2.833-.86 3.367M73.015 152.146c2.324 0 2.327-3.482 0-3.482-2.324 0-2.327 3.482 0 3.482M77.667 177.682c-2.325 0-2.328 3.482 0 3.482 2.322 0 2.328-3.482 0-3.482M70.69 173.039c2.322 0 2.328-3.482 0-3.482-2.325 0-2.328 3.482 0 3.482M98.597 149.825c2.324 0 2.327-3.482 0-3.482-2.325 0-2.327 3.482 0 3.482M103.248 130.093c-2.324 0-2.327 3.482 0 3.482 2.324 0 2.327-3.482 0-3.482M112.55 85.985c-2.324 0-2.327 3.483 0 3.483 2.324 0 2.327-3.483 0-3.483M100.922 72.057c-2.324 0-2.327 3.482 0 3.482 2.324 0 2.327-3.482 0-3.482M93.945 85.985c-2.324 0-2.327 3.483 0 3.483 2.325 0 2.327-3.483 0-3.483M68.364 96.432c2.323 0 2.328-3.482 0-3.482-2.324 0-2.327 3.482 0 3.482M56.736 90.628c2.324 0 2.327-3.482 0-3.482-2.323 0-2.328 3.482 0 3.482M64.875 121.968c-2.322 0-2.328 3.482 0 3.482 2.325 0 2.328-3.482 0-3.482M116.039 193.932c2.322 0 2.328-3.482 0-3.482-2.325 0-2.328 3.482 0 3.482M77.085 255.45c-4.647 0-4.656 6.964 0 6.964 4.647 0 4.655-6.964 0-6.964M93.946 235.718c2.323 0 2.326-3.483 0-3.483-2.325 0-2.328 3.483 0 3.483M214.293 303.039a4.646 4.646 0 0 0-4.65 4.643 4.646 4.646 0 0 0 4.65 4.643 4.647 4.647 0 0 0 4.652-4.643 4.647 4.647 0 0 0-4.652-4.643M244.527 275.182a4.648 4.648 0 0 0 4.65-4.643 4.648 4.648 0 0 0-4.65-4.643 4.648 4.648 0 0 0-4.651 4.643 4.648 4.648 0 0 0 4.65 4.643M257.317 259.512a2.905 2.905 0 0 0-2.907-2.902 2.905 2.905 0 0 0-2.907 2.902 2.904 2.904 0 0 0 2.907 2.902 2.904 2.904 0 0 0 2.907-2.902M258.712 278.111a2.902 2.902 0 0 0 1.54 3.805 2.908 2.908 0 0 0 3.81-1.539 2.895 2.895 0 0 0-1.54-3.802 2.908 2.908 0 0 0-3.81 1.536M237.781 287.397a2.899 2.899 0 0 0 1.541 3.803 2.908 2.908 0 0 0 3.81-1.536 2.899 2.899 0 0 0-1.54-3.803 2.906 2.906 0 0 0-3.81 1.536M276.532 306.29a2.91 2.91 0 0 0 3.81-1.536 2.902 2.902 0 0 0-1.54-3.805 2.909 2.909 0 0 0-3.812 1.539 2.9 2.9 0 0 0 1.542 3.802M244.253 312.337c.74-1.703-.074-3.665-1.82-4.39-1.743-.719-3.757.073-4.497 1.776-.189.432-.275.88-.272 1.323-.031 0-.051-.016-.086-.016-4.686 0-4.691 7.098 0 7.098 2.438 0 3.578-1.914 3.48-3.757 1.35.012 2.635-.75 3.195-2.034M219.528 269.378c-2.326 0-2.329 3.482 0 3.482 2.323 0 2.325-3.482 0-3.482M223.016 315.356c1.664 0 1.667-2.58 0-2.58-1.668 0-1.668 2.58 0 2.58M252.085 311.874c1.664 0 1.667-2.58 0-2.58-1.664 0-1.668 2.58 0 2.58M254.41 297.686c-1.663 0-1.667 2.58 0 2.58 1.664 0 1.668-2.58 0-2.58M218.364 280.276c-1.664 0-1.667 2.58 0 2.58 1.664 0 1.667-2.58 0-2.58M275.34 295.624c1.665 0 1.668-2.58 0-2.58-1.663 0-1.667 2.58 0 2.58M260.226 268.669c-1.668 0-1.668 2.58 0 2.58 1.664 0 1.664-2.58 0-2.58M249.76 283.758c-1.665 0-1.668 2.58 0 2.58 1.663 0 1.667-2.58 0-2.58M248.597 201.347c-1.664 0-1.668 2.58 0 2.58 1.663 0 1.667-2.58 0-2.58M217.202 149.374c1.664 0 1.664-2.58 0-2.58-1.667 0-1.667 2.58 0 2.58M248.597 101.526c-1.664 0-1.668 2.58 0 2.58 1.663 0 1.667-2.58 0-2.58M238.131 72.767c1.664 0 1.668-2.58 0-2.58-1.664 0-1.667 2.58 0 2.58M238.131 92.24c-1.664 0-1.667 2.58 0 2.58 1.664 0 1.668-2.58 0-2.58M243.945 122.677c1.664 0 1.668-2.58 0-2.58-1.664 0-1.667 2.58 0 2.58M209.052 115.713c1.664.014 1.685-2.566.02-2.58-1.663-.014-1.688 2.566-.02 2.58M225.34 135.186c-1.663 0-1.667 2.58 0 2.58 1.665 0 1.668-2.58 0-2.58M213.711 102.686c-1.663 0-1.667 2.58 0 2.58 1.668 0 1.671-2.58 0-2.58M273.017 134.284c1.664 0 1.664-2.58 0-2.58-1.667 0-1.67 2.58 0 2.58M262.55 114.294c-1.664 0-1.667 2.58 0 2.58 1.664 0 1.667-2.58 0-2.58M268.363 104.106c1.668 0 1.668-2.58 0-2.58-1.664 0-1.667 2.58 0 2.58M229.993 278.213c1.664 0 1.664-2.58 0-2.58-1.667 0-1.667 2.58 0 2.58M243.945 257.32c1.664 0 1.668-2.58 0-2.58-1.664 0-1.667 2.58 0 2.58M267.202 256.16c1.664 0 1.667-2.58 0-2.58-1.668 0-1.668 2.58 0 2.58M231.155 248.034c1.664 0 1.667-2.58 0-2.58-1.664 0-1.668 2.58 0 2.58M216.04 243.392c1.664 0 1.664-2.58 0-2.58-1.668 0-1.668 2.58 0 2.58M236.967 229.204c-1.664 0-1.667 2.58 0 2.58 1.668 0 1.671-2.58 0-2.58M217.202 317.677c1.664 0 1.664-2.58 0-2.58-1.667 0-1.667 2.58 0 2.58M207.898 286.789c2.324 0 2.33-3.482 0-3.482-2.323 0-2.326 3.482 0 3.482M243.363 239.2c-4.646 0-4.654 6.964 0 6.964 4.648 0 4.657-6.964 0-6.964M225.341 238.039c2.322 0 2.328-3.482 0-3.482-2.325 0-2.327 3.482 0 3.482M207.898 232.235c-2.323 0-2.326 3.483 0 3.483 2.325 0 2.328-3.483 0-3.483M251.107 213.568c1.485.532 3.432-1.233 2.462-3.206-.92-1.866-3.094-1.7-4.067-.025-.92 1.588.277 3.064 1.605 3.23M278.829 251.968c2.323 0 2.329-3.483 0-3.483-2.324 0-2.327 3.483 0 3.483M263.713 242.682c-2.323 0-2.329 3.482 0 3.482 2.324 0 2.327-3.482 0-3.482M278.828 286.789c2.326 0 2.328-3.482 0-3.482-2.323 0-2.326 3.482 0 3.482M268.945 308.023v-.682c0-2.64-3.488-2.642-3.488 0v.682c0 2.639 3.488 2.642 3.488 0M271.27 262.414c-4.646 0-4.654 6.964 0 6.964 4.648 0 4.656-6.964 0-6.964M272.435 232.235c-4.649 0-4.657 6.965 0 6.965 4.645 0 4.654-6.965 0-6.965M215.458 257.771c4.646 0 4.654-6.964 0-6.964-4.65 0-4.655 6.964 0 6.964M230.573 290.548v-.553c0-4.272-6.976-4.277-6.976 0v.553c0 4.27 6.976 4.278 6.976 0M229.412 307.682c4.645 0 4.654-6.964 0-6.964-4.649 0-4.657 6.964 0 6.964M261.968 287.95c-4.646 0-4.654 6.964 0 6.964 4.648 0 4.656-6.964 0-6.964M254.41 316.968c2.325 0 2.328-3.483 0-3.483-2.323 0-2.326 3.483 0 3.483M260.223 314.646c3.876 0 3.88-5.803 0-5.803-3.87 0-3.879 5.803 0 5.803M257.899 307.682c2.323 0 2.328-3.482 0-3.482-2.323 0-2.329 3.482 0 3.482M246.272 296.075c-2.326 0-2.328 3.482 0 3.482 2.323 0 2.326-3.482 0-3.482M248.595 316.968c2.326 0 2.329-3.483 0-3.483-2.322 0-2.325 3.483 0 3.483M236.968 220.628c2.325 0 2.328-3.482 0-3.482-2.323 0-2.326 3.482 0 3.482M231.737 193.932c-4.648 0-4.657 6.964 0 6.964 4.646 0 4.654-6.964 0-6.964M268.946 206.7c4.646 0 4.655-6.965 0-6.965-4.65 0-4.655 6.965 0 6.965M265.458 160.271c-4.65 0-4.655 6.964 0 6.964 4.646 0 4.654-6.964 0-6.964M253.83 171.878c4.646 0 4.654-6.964 0-6.964-4.648 0-4.656 6.964 0 6.964M208.48 133.575c-4.646 0-4.655 6.964 0 6.964 4.649 0 4.654-6.964 0-6.964M250.34 180.003c-4.646 0-4.655 6.965 0 6.965 4.65 0 4.655-6.965 0-6.965M272.435 184.646c4.645 0 4.654-6.964 0-6.964-4.649 0-4.657 6.964 0 6.964M258.48 228.753c4.647 0 4.656-6.964 0-6.964-4.647 0-4.655 6.964 0 6.964M241.039 137.057c4.646 0 4.655-6.964 0-6.964-4.65 0-4.655 6.964 0 6.964M258.48 98.753c4.647 0 4.656-6.964 0-6.964-4.647 0-4.655 6.964 0 6.964M276.503 220.628c2.323 0 2.329-3.482 0-3.482-2.322 0-2.328 3.482 0 3.482M274.178 145.182c-2.324 0-2.327 3.482 0 3.482 2.322 0 2.328-3.482 0-3.482M221.27 221.789c4.65 0 4.655-6.964 0-6.964-4.646 0-4.654 6.964 0 6.964M209.641 198.575c-4.646 0-4.651 6.964 0 6.964 4.65 0 4.658-6.964 0-6.964M208.48 171.878c4.646 0 4.657-6.964 0-6.964-4.648 0-4.654 6.964 0 6.964M220.689 197.414c2.323 0 2.33-3.482 0-3.482-2.323 0-2.326 3.482 0 3.482M245.11 173.039c-2.326 0-2.33 3.482 0 3.482 2.322 0 2.325-3.482 0-3.482M241.191 160.214c2.24.534 3.106-2.833.86-3.367-2.244-.537-3.109 2.833-.86 3.367M232.749 104.614c-2.243-.534-3.109 2.831-.863 3.368 2.243.533 3.108-2.832.863-3.368M230.42 81.4c-2.24-.534-3.105 2.831-.859 3.368 2.243.533 3.109-2.832.86-3.368M273.749 109.142c2.243.537 3.105-2.833.86-3.367-2.244-.536-3.109 2.833-.86 3.367M228.83 152.146c2.323 0 2.326-3.482 0-3.482-2.325 0-2.328 3.482 0 3.482M232.316 181.164c2.326 0 2.329-3.482 0-3.482-2.322 0-2.325 3.482 0 3.482M225.341 173.039c2.322 0 2.328-3.482 0-3.482-2.325 0-2.327 3.482 0 3.482M253.249 149.825c2.322 0 2.325-3.482 0-3.482-2.326 0-2.329 3.482 0 3.482M257.9 130.093c-2.326 0-2.329 3.482 0 3.482 2.323 0 2.325-3.482 0-3.482M267.201 89.468c2.323 0 2.329-3.483 0-3.483-2.323 0-2.328 3.483 0 3.483M255.574 75.539c2.323 0 2.326-3.482 0-3.482-2.325 0-2.328 3.482 0 3.482M248.597 89.468c2.322 0 2.328-3.483 0-3.483-2.323 0-2.329 3.483 0 3.483M224.178 96.432c2.323 0 2.328-3.482 0-3.482-2.323 0-2.329 3.482 0 3.482M212.55 90.628c2.323 0 2.328-3.482 0-3.482-2.323 0-2.328 3.482 0 3.482M150.923 65.802c1.66 0 1.664-2.58 0-2.58s-1.667 2.58 0 2.58M173.015 32.142c1.664 0 1.668-2.58 0-2.58-1.664 0-1.667 2.58 0 2.58M140.086 56.73c1.663 0 1.663-2.58 0-2.58-1.664 0-1.668 2.58 0 2.58M143.086 83.73c1.663 0 1.663-2.58 0-2.58-1.664 0-1.668 2.58 0 2.58M144.086 101.73c1.663 0 1.663-2.58 0-2.58-1.664 0-1.668 2.58 0 2.58M170.086 83.73c1.663 0 1.663-2.58 0-2.58-1.664 0-1.668 2.58 0 2.58M197.086 81.73c1.663 0 1.663-2.58 0-2.58-1.664 0-1.668 2.58 0 2.58M223.086 80.73c1.663 0 1.663-2.58 0-2.58-1.664 0-1.668 2.58 0 2.58M111.399 74.83c-1.664-.015-1.688 2.566-.02 2.58 1.66.013 1.684-2.567.02-2.58M116.039 66.963c1.664 0 1.664-2.58 0-2.58s-1.667 2.58 0 2.58M164.876 78.57c1.664 0 1.667-2.58 0-2.58-1.664 0-1.668 2.58 0 2.58M176.503 58.838c1.667 0 1.667-2.58 0-2.58-1.664 0-1.668 2.58 0 2.58M167.784 40.718c4.647 0 4.652-6.965 0-6.965-4.65 0-4.656 6.965 0 6.965M135.376 68.518c2.242.533 3.107-2.832.86-3.368-2.244-.534-3.107 2.831-.86 3.368M139.515 46.757c-2.244-.534-3.106 2.831-.86 3.368 2.244.533 3.106-2.832.86-3.368M141.515 73.757c-2.244-.534-3.106 2.831-.86 3.368 2.244.533 3.106-2.832.86-3.368M142.515 91.757c-2.244-.534-3.106 2.831-.86 3.368 2.244.533 3.106-2.832.86-3.368M168.515 73.757c-2.244-.534-3.106 2.831-.86 3.368 2.244.533 3.106-2.832.86-3.368M195.515 71.757c-2.244-.534-3.106 2.831-.86 3.368 2.244.533 3.106-2.832.86-3.368M221.515 70.757c-2.244-.534-3.106 2.831-.86 3.368 2.244.533 3.106-2.832.86-3.368M176.073 70.839c2.243.534 3.108-2.831.86-3.368-2.241-.533-3.106 2.832-.86 3.368M170.69 50.003c2.324 0 2.327-3.482 0-3.482-2.325 0-2.327 3.482 0 3.482M157.898 37.235c2.325 0 2.328-3.482 0-3.482-2.322 0-2.327 3.482 0 3.482M150.922 50.003c2.324 0 2.327-3.482 0-3.482-2.324 0-2.327 3.482 0 3.482M143.945 27.95c-2.322 0-2.328 3.482 0 3.482 2.325 0 2.328-3.482 0-3.482M126.085 58.182c2.324 0 2.327-3.482 0-3.482-2.324 0-2.327 3.482 0 3.482M129.085 85.182c2.324 0 2.327-3.482 0-3.482-2.324 0-2.327 3.482 0 3.482M130.085 103.182c2.324 0 2.327-3.482 0-3.482-2.324 0-2.327 3.482 0 3.482M156.085 85.182c2.324 0 2.327-3.482 0-3.482-2.324 0-2.327 3.482 0 3.482M183.085 83.182c2.324 0 2.327-3.482 0-3.482-2.324 0-2.327 3.482 0 3.482M209.085 82.182c2.324 0 2.327-3.482 0-3.482-2.324 0-2.327 3.482 0 3.482M106.736 65.093c-2.323 0-2.328 3.482 0 3.482 2.324 0 2.327-3.482 0-3.482M108.133 39.241c-1.158 1.195.7 2.988 1.859 1.794 1.155-1.198-.701-2.991-1.86-1.794M82.085 28.265c1.155-1.194-.704-2.988-1.86-1.793-1.157 1.198.702 2.99 1.86 1.793M98.364 44.515c1.154-1.194-.705-2.988-1.86-1.793-1.154 1.198.701 2.99 1.86 1.793M92.541 79.344c1.166-1.184-.676-2.994-1.841-1.807-1.17 1.184.676 2.995 1.841 1.807M87.2 65.937c-1.154 1.194.705 2.988 1.863 1.793 1.152-1.194-.704-2.987-1.862-1.793M133.015 45.337c1.154-1.195-.705-2.988-1.86-1.794-1.154 1.198.702 2.991 1.86 1.794M135.015 72.337c1.154-1.195-.705-2.988-1.86-1.794-1.154 1.198.702 2.991 1.86 1.794M136.015 90.337c1.154-1.195-.705-2.988-1.86-1.794-1.154 1.198.702 2.991 1.86 1.794M162.015 72.337c1.154-1.195-.705-2.988-1.86-1.794-1.154 1.198.702 2.991 1.86 1.794M189.015 70.337c1.154-1.195-.705-2.988-1.86-1.794-1.154 1.198.702 2.991 1.86 1.794M215.015 69.337c1.154-1.195-.705-2.988-1.86-1.794-1.154 1.198.702 2.991 1.86 1.794M126.27 28.266c1.155-1.194-.704-2.988-1.859-1.793-1.154 1.194.701 2.987 1.86 1.793M120.288 32.689c3.114-3.221-1.892-8.063-5.012-4.836-3.112 3.224 1.895 8.063 5.012 4.836M164.475 25.725c3.112-3.222-1.893-8.063-5.013-4.836-3.112 3.224 1.895 8.062 5.013 4.836M114.651 57.85c1.922-1.182.047-4.11-1.877-2.928-1.921 1.186-.047 4.115 1.877 2.929M84.418 43.923c1.921-1.186.05-4.114-1.876-2.928-1.922 1.183-.047 4.113 1.876 2.928M133.256 28.833c1.921-1.184.047-4.114-1.877-2.927-1.921 1.184-.047 4.113 1.877 2.927M97.524 32.06c1.556-1.612-.946-4.03-2.505-2.418s.946 4.033 2.505 2.418M84.734 55.274c1.555-1.612-.946-4.03-2.507-2.418-1.556 1.612.948 4.033 2.507 2.418M66.13 72.685c1.555-1.61-.95-4.032-2.508-2.417-1.555 1.61.946 4.032 2.507 2.417M71.943 55.275c1.556-1.612-.947-4.032-2.505-2.418-1.56 1.612.946 4.03 2.505 2.418M67.29 44.828c1.56-1.612-.946-4.03-2.505-2.418-1.556 1.612.947 4.032 2.505 2.418M188.131 56.517c1.668 0 1.664-2.58 0-2.58-1.667 0-1.664 2.58 0 2.58M181.153 51.874c1.67 0 1.667-2.58 0-2.58-1.664 0-1.664 2.58 0 2.58M176.503 65.802c1.667 0 1.667-2.58 0-2.58-1.668 0-1.664 2.58 0 2.58M199.759 52.776c-1.668 0-1.664 2.58 0 2.58 1.667 0 1.667-2.58 0-2.58M218.375 77.41c1.667-.014 1.643-2.595-.025-2.58-1.664.013-1.64 2.593.025 2.58M212.55 66.963c1.667 0 1.664-2.58 0-2.58-1.667 0-1.664 2.58 0 2.58M194.374 68.518c2.249-.537 1.384-3.902-.86-3.368-2.246.536-1.38 3.901.86 3.368M192.351 36.132c-2.245.536-1.38 3.901.863 3.368 2.246-.537 1.38-3.902-.863-3.368M183.911 44.143c2.246-.537 1.381-3.902-.862-3.368-2.246.536-1.38 3.901.862 3.368"/>
                    <path d="M202.086 58.128c2.326 0 2.323-3.482 0-3.482-2.328 0-2.326 3.482 0 3.482M211.388 48.843c2.326 0 2.323-3.483 0-3.483-2.328 0-2.325 3.483 0 3.483M218.13 38.08c-1.157-1.197-3.013.596-1.858 1.794 1.158 1.194 3.013-.599 1.859-1.793M239.061 25.313c-1.158-1.198-3.014.595-1.86 1.793 1.159 1.195 3.015-.599 1.86-1.793M231.389 44.515c1.154 1.198 3.014-.595 1.856-1.793-1.155-1.195-3.01.599-1.856 1.793M237.89 77.537c-1.169-1.187-3.007.623-1.842 1.807 1.165 1.188 3.007-.623 1.842-1.807M242.55 65.937c-1.155-1.194-3.015.599-1.86 1.793 1.158 1.195 3.014-.599 1.86-1.793M197.667 42.194c1.158 1.198 3.014-.596 1.859-1.794-1.155-1.194-3.014.6-1.86 1.794M204.177 31.116c-1.158-1.195-3.014.598-1.859 1.793 1.158 1.194 3.014-.6 1.86-1.793M184.408 29.955c-1.154-1.195-3.01.599-1.859 1.793 1.158 1.195 3.017-.599 1.86-1.793M219.126 27.853c-3.12-3.226-8.126 1.612-5.012 4.836 3.12 3.227 8.124-1.614 5.012-4.836M229.052 65.976c1.924 1.186 3.799-1.743 1.88-2.927-1.927-1.187-3.799 1.743-1.88 2.927M244.169 43.923c1.924 1.185 3.8-1.745 1.877-2.928-1.924-1.186-3.797 1.742-1.877 2.928M196.496 27.672c1.921 1.187 3.798-1.743 1.877-2.927-1.927-1.186-3.799 1.743-1.877 2.927M182.543 23.03c1.922 1.186 3.798-1.744 1.875-2.928-1.925-1.186-3.798 1.743-1.875 2.927M228.738 32.061c1.56 1.612 4.062-.806 2.508-2.418-1.559-1.615-4.064.806-2.508 2.418M235.896 51.697c-1.56-1.615-4.063.806-2.506 2.418 1.557 1.611 4.063-.806 2.506-2.418M263.623 72.685c1.559 1.615 4.062-.807 2.506-2.417-1.56-1.615-4.063.807-2.506 2.417M253.338 50.537c-1.56-1.616-4.063.803-2.506 2.416 1.56 1.615 4.063-.807 2.506-2.416M263.803 43.572c-1.56-1.615-4.063.806-2.506 2.418 1.56 1.611 4.063-.806 2.506-2.418M219.526 125.45c2.325 0 2.328-3.482 0-3.482-2.323 0-2.326 3.482 0 3.482M270.69 193.932c2.324 0 2.326-3.482 0-3.482-2.323 0-2.33 3.482 0 3.482M232.898 255.45c-4.646 0-4.654 6.964 0 6.964 4.648 0 4.657-6.964 0-6.964M248.597 235.718c2.323 0 2.326-3.483 0-3.483-2.323 0-2.33 3.483 0 3.483M187.86 23.614c.826 0 .824-1.275 0-1.275-.825 0-.825 1.275 0 1.275M179.207 20.944c-1.2-.752-2.367 1.107-1.17 1.857 1.201.753 2.368-1.105 1.17-1.857M210.154 20.347c-.984-1.015-2.564.508-1.581 1.524.984 1.017 2.564-.508 1.581-1.524M150.706 22.09c-.573.59.347 1.477.92.886.572-.59-.347-1.477-.92-.886M132.13 22.338c.571-.59-.349-1.476-.92-.886-.572.59.347 1.477.92.886M163.613 22.037c1.198-.75.03-2.608-1.17-1.856-1.199.75-.03 2.608 1.17 1.856M157.364 23.927c1.198-.75.03-2.608-1.171-1.856-1.198.75-.03 2.608 1.17 1.856"/>
                    <path d="M182.844 21.452c-.573-.59-1.493.296-.922.886.573.59 1.492-.296.922-.886M213.737 21.452c-.571-.59-1.492.296-.92.886.573.59 1.493-.296.92-.886"/>
                </g>
            </g>
        </g>
    </g>
</svg>
