<?xml version="1.0" encoding="UTF-8"?>
<svg width="10px" height="10px" viewBox="0 0 10 10" version="1.1" xmlns="http://www.w3.org/2000/svg" xmlns:xlink="http://www.w3.org/1999/xlink">
    <!-- Generator: Sketch 52.2 (67145) - http://www.bohemiancoding.com/sketch -->
    <title>Help</title>
    <desc>Created with Sketch.</desc>
    <defs>
        <polygon id="path-1" points="0 0 4 0 4 6 0 6"></polygon>
    </defs>
    <g id="Welcome" stroke="none" stroke-width="1" fill="none" fill-rule="evenodd">
        <g id="Autorization_02_Tablet" transform="translate(-142.000000, -279.000000)">
            <g id="Help" transform="translate(142.000000, 279.000000)">
                <g id="Group">
                    <circle id="Oval" fill="#D5DBE8" cx="5" cy="5" r="5"></circle>
                    <g id="Group-3" transform="translate(3.000000, 2.000000)">
                        <mask id="mask-2" fill="white">
                            <use xlink:href="#path-1"></use>
                        </mask>
                        <g id="Clip-2"></g>
                        <path d="M1.88235294,6 C1.60350151,6 1.40443128,5.93898233 1.28540417,5.81715834 C1.16625618,5.69537276 1.10676277,5.54578726 1.10676277,5.36840184 L1.10676277,5.16896091 C1.10676277,4.99172919 1.16625618,4.8421629 1.28540417,4.72024284 C1.40443128,4.59843806 1.60350151,4.53740118 1.88235294,4.53740118 C2.16122452,4.53740118 2.36017387,4.59843806 2.47932186,4.72024284 C2.59832883,4.8421629 2.65796326,4.99172919 2.65796326,5.16896091 L2.65796326,5.36840184 C2.65796326,5.54578726 2.59832883,5.69537276 2.47932186,5.81715834 C2.36017387,5.93898233 2.16122452,6 1.88235294,6 Z M1.25492211,3.96395808 L1.25492211,2.69251976 C1.71378492,2.67590129 2.05801262,2.60251102 2.2876052,2.47229133 C2.51703661,2.3421677 2.6318329,2.12197769 2.6318329,1.81162525 L2.6318329,1.6952767 C2.6318329,1.48478881 2.56645664,1.32417556 2.4357444,1.21328325 C2.30501201,1.10252543 2.13509416,1.04709849 1.9259304,1.04709849 C1.69935984,1.04709849 1.51199488,1.11355318 1.36385569,1.24653942 C1.21569635,1.37948723 1.11548632,1.54857302 1.0631853,1.75345098 L0,1.3296318 C0.0523211596,1.16342782 0.127750664,1.00137367 0.226590713,0.843488535 C0.325309882,0.685584192 0.45453126,0.544317538 0.614395874,0.419630935 C0.77411946,0.295001969 0.965836116,0.193965476 1.18954584,0.116348546 C1.41313469,0.038827677 1.67320933,0 1.96950786,0 C2.27150794,0 2.54751867,0.0415365847 2.79737891,0.124648178 C3.04711826,0.207759772 3.26212458,0.324089106 3.44227699,0.473693817 C3.62226822,0.623260103 3.76033403,0.803373647 3.85621251,1.01384233 C3.95207084,1.2244647 4,1.45716179 4,1.71191439 C4,1.94459227 3.95928338,2.15521465 3.87801131,2.34347413 C3.79657807,2.5318873 3.68627451,2.69668879 3.54683872,2.83793624 C3.40740293,2.97924131 3.24469762,3.09426422 3.05882353,3.18281285 C2.87282856,3.27149595 2.67825106,3.33239834 2.47495001,3.3656353 L2.47495001,3.96395808 L1.25492211,3.96395808 Z" id="Fill-1" fill="#FFFFFF" mask="url(#mask-2)"></path>
                    </g>
                </g>
            </g>
        </g>
    </g>
</svg>