<svg xmlns="http://www.w3.org/2000/svg" width="80" height="20" viewBox="0 0 80 20">
    <g fill="none" fill-rule="evenodd">
        <path fill="#FF0031" d="M14.707 13.377a6.823 6.823 0 0 1-.828 3.367 5.74 5.74 0 0 1-2.48 2.337 8.76 8.76 0 0 1-4.052.85c-2.4 0-4.23-.588-5.488-1.764C.602 16.991-.018 15.395 0 13.377V1.312h4.903V13.22c0 1.099.194 1.903.582 2.413a2.214 2.214 0 0 0 1.88.775 2.153 2.153 0 0 0 1.866-.784 4.089 4.089 0 0 0 .574-2.404V1.312h4.902v12.065z"/>
        <path fill="#000" d="M62.081 18.524c-.687-.703-1.026-1.725-1.026-3.045V.431L65.512 0v15.324c0 .487.214.729.652.729.191-.009.38-.048.558-.117l.86 3.188a6.414 6.414 0 0 1-2.577.431 3.853 3.853 0 0 1-2.924-1.03M77.134 5.559a7.196 7.196 0 0 1 2.326 1.28l-1.662 2.556a6.277 6.277 0 0 0-3.356-1.043 2.064 2.064 0 0 0-1.078.224.69.69 0 0 0-.352.614.808.808 0 0 0 .183.546c.223.198.484.35.766.447.392.166 1.012.381 1.858.64a7.418 7.418 0 0 1 3.147 1.635 3.776 3.776 0 0 1 1.016 2.816 3.924 3.924 0 0 1-.82 2.466 5.242 5.242 0 0 1-2.264 1.634 8.795 8.795 0 0 1-3.262.573 9.688 9.688 0 0 1-3.311-.56 7.663 7.663 0 0 1-2.616-1.553l2.228-2.484a6.908 6.908 0 0 0 1.729.994c.59.24 1.221.365 1.858.367.447.024.891-.072 1.288-.278a.896.896 0 0 0 .446-.82 1.002 1.002 0 0 0-.218-.653 1.884 1.884 0 0 0-.74-.447c-.366-.148-.99-.354-1.872-.614-2.674-.8-4.01-2.271-4.01-4.414a3.812 3.812 0 0 1 .699-2.238 4.709 4.709 0 0 1 2.014-1.58 7.833 7.833 0 0 1 3.12-.574c.98-.007 1.955.15 2.883.466M52.142 7.86c2.228 0 3.12 2.01 3.12 4.477 0 2.467-.954 4.477-3.12 4.477-2.166 0-3.12-2.006-3.12-4.477 0-2.471.718-4.46 3.12-4.46V7.86zm-.05 12.087c4.8 0 7.171-3.304 7.171-7.377 0-4.074-2.576-7.383-7.17-7.383-4.755 0-7.17 3.304-7.17 7.383 0 4.078 2.771 7.377 7.17 7.377zM36.544 7.86c2.228 0 3.12 2.01 3.12 4.477 0 2.467-.954 4.477-3.12 4.477-2.166 0-3.12-2.006-3.12-4.477 0-2.471.705-4.46 3.12-4.46V7.86zm-.09 12.087c4.8 0 7.167-3.304 7.167-7.36 0-4.056-2.572-7.4-7.166-7.4-4.755 0-7.17 3.304-7.17 7.383 0 4.078 2.771 7.377 7.17 7.377zM17.55 3.998c.157.296.245.65.258.895h1.783a1.952 1.952 0 0 0-.325-.895H17.55zM29.052 4.893h.638l.138-.895h-1.039c.159.296.248.65.263.895M26.543 3.998c.159.296.248.65.263.895h1.783a1.943 1.943 0 0 0-.321-.895h-1.725zM28.834 2.655h1.194l.152-1.343h-1.128a.802.802 0 0 1 0 .106c.002.362-.072.72-.218 1.237M16.044 3.998v.895h1.328a1.952 1.952 0 0 0-.326-.895h-1.002zM24.342 2.655h1.747c.18-.506.275-.869.205-1.237v-.106h-1.783v.106c.064.363-.018.721-.17 1.237M17.603 2.655h1.73c.18-.506.275-.869.276-1.237v-.106h-1.783v.106c-.001.362-.077.72-.223 1.237M17.381 1.418v-.106h-1.337v1.343h1.06c.177-.508.27-.87.277-1.237M22.096 2.655h1.747c.18-.506.275-.869.223-1.237v-.106h-1.783v.106c.046.363-.036.721-.187 1.237M19.85 2.655h1.747c.18-.506.275-.869.24-1.237v-.106h-1.782v.106c.028.363-.054.721-.205 1.237M16.044 3.103v.447H29.89l.08-.447zM26.588 2.655h1.747c.18-.506.275-.869.276-1.237a.824.824 0 0 0 0-.106H26.74v.106c.081.363 0 .721-.152 1.237M26.017 3.998H24.28c.157.296.246.65.263.895h-.445a1.928 1.928 0 0 0-.308-.895h-1.738c.157.296.245.65.259.895h-.446a1.975 1.975 0 0 0-.303-.895h-1.738c.157.296.258.895.258.895h.42V19.22h4.902V4.893h.971a1.98 1.98 0 0 0-.357-.895"/>
    </g>
</svg>
