<svg width="16" height="21" fill="none" xmlns="http://www.w3.org/2000/svg"><mask id="a" maskUnits="userSpaceOnUse" x="0" y="0" width="16" height="21"><path fill-rule="evenodd" clip-rule="evenodd" d="M0 0h16v21H0V0z" fill="#fff"/></mask><g mask="url(#a)"><path fill-rule="evenodd" clip-rule="evenodd" d="M8.02 21c-.7 0-1.37-.38-1.73-.98a.65.65 0 01.24-.9.67.67 0 01.92.24c.24.41.9.41 1.14 0 .18-.32.6-.42.91-.24.32.18.43.58.24.9a2 2 0 01-1.72.98zm0-19.69c-.74 0-1.34.6-1.34 1.31 0 .73.6 1.32 1.34 1.32.73 0 1.33-.6 1.33-1.32 0-.72-.6-1.3-1.33-1.3zm0 3.94a2.65 2.65 0 01-2.67-2.63C5.35 1.18 6.55 0 8.02 0a2.65 2.65 0 012.66 2.62c0 1.45-1.2 2.63-2.66 2.63zm0 0a4.7 4.7 0 00-4.7 4.71c0 1.77-.52 3.49-1.52 4.96l-.37.54c-.14.2-.1.39-.06.48.06.17.2.3.38.34 1.9.53 3.95.78 6.27.78 2.3 0 4.34-.25 6.23-.78a.55.55 0 00.38-.34.52.52 0 00-.06-.48l-.37-.55a8.78 8.78 0 01-1.52-4.94 4.7 4.7 0 00-4.66-4.72zm0 13.13c-2.45 0-4.61-.28-6.63-.83A1.89 1.89 0 01.12 16.4a1.8 1.8 0 01.2-1.67l.37-.55a7.48 7.48 0 001.3-4.22 6.02 6.02 0 1112.02 0 7.5 7.5 0 001.3 4.22l.37.55c.34.5.41 1.1.2 1.67-.21.57-.67.98-1.27 1.15-2 .55-4.16.82-6.6.82z" fill="#AFAFAF"/></g></svg>