<svg width="4" height="6" viewBox="0 0 4 6" fill="none" xmlns="http://www.w3.org/2000/svg">
<mask id="mask0" mask-type="alpha" maskUnits="userSpaceOnUse" x="0" y="0" width="4" height="6">
<path fill-rule="evenodd" clip-rule="evenodd" d="M0 0H4V6H0V0Z" fill="white"/>
</mask>
<g mask="url(#mask0)">
<path fill-rule="evenodd" clip-rule="evenodd" d="M1.88235 6C1.6035 6 1.40443 5.93898 1.2854 5.81716C1.16626 5.69537 1.10676 5.54579 1.10676 5.3684V5.16896C1.10676 4.99173 1.16626 4.84216 1.2854 4.72024C1.40443 4.59844 1.6035 4.5374 1.88235 4.5374C2.16122 4.5374 2.36017 4.59844 2.47932 4.72024C2.59833 4.84216 2.65796 4.99173 2.65796 5.16896V5.3684C2.65796 5.54579 2.59833 5.69537 2.47932 5.81716C2.36017 5.93898 2.16122 6 1.88235 6ZM1.25492 3.96396V2.69252C1.71378 2.6759 2.05801 2.60251 2.28761 2.47229C2.51704 2.34217 2.63183 2.12198 2.63183 1.81163V1.69528C2.63183 1.48479 2.56646 1.32418 2.43574 1.21328C2.30501 1.10253 2.13509 1.0471 1.92593 1.0471C1.69936 1.0471 1.51199 1.11355 1.36386 1.24654C1.2157 1.37949 1.11549 1.54857 1.06319 1.75345L0 1.32963C0.0523212 1.16343 0.127751 1.00137 0.226591 0.843489C0.32531 0.685584 0.454531 0.544318 0.614396 0.419631C0.774119 0.295002 0.965836 0.193965 1.18955 0.116349C1.41313 0.0388277 1.67321 0 1.96951 0C2.27151 0 2.54752 0.0415366 2.79738 0.124648C3.04712 0.20776 3.26212 0.324089 3.44228 0.473694C3.62227 0.62326 3.76033 0.803374 3.85621 1.01384C3.95207 1.22446 4 1.45716 4 1.71191C4 1.94459 3.95928 2.15521 3.87801 2.34347C3.79658 2.53189 3.68627 2.69669 3.54684 2.83794C3.4074 2.97924 3.2447 3.09426 3.05882 3.18281C2.87283 3.2715 2.67825 3.3324 2.47495 3.36564V3.96396H1.25492Z" fill="white"/>
</g>
</svg>
