<svg width="33" height="33" fill="none" xmlns="http://www.w3.org/2000/svg"><mask id="a" maskUnits="userSpaceOnUse" x="0" y="0" width="33" height="33"><path fill-rule="evenodd" clip-rule="evenodd" d="M0 0h33v33H0V0z" fill="#fff"/></mask><g mask="url(#a)"><path fill-rule="evenodd" clip-rule="evenodd" d="M25.29 21.1a10.3 10.3 0 01-17.58 0 1.16 1.16 0 111.98-1.23 7.99 7.99 0 006.81 3.84 7.99 7.99 0 006.8-3.84 1.16 1.16 0 011.98 1.23zM10.37 9.53a1.66 1.66 0 110 3.32 1.66 1.66 0 010-3.32zm12.26 0a1.66 1.66 0 110 3.32 1.66 1.66 0 010-3.32zM16.5 0a16.5 16.5 0 100 33 16.5 16.5 0 000-33z" fill="#024EFD"/></g></svg>